<?xml version="1.0" encoding="UTF-8"?>
<svg width="600px" height="505px" viewBox="0 0 600 505" version="1.1" xmlns="http://www.w3.org/2000/svg" xmlns:xlink="http://www.w3.org/1999/xlink">
    <title>购物1</title>
    <defs>
        <path d="M8.08104723,0.295728953 L20.3795483,4.91620123 C20.3795483,4.91620123 14.2316632,18.6231211 13.8988706,21.5238398 C13.8676591,21.7953799 13.8575154,22.0325873 13.8711704,22.2440452 L13.8711704,22.2440452 L0.112361396,16.9197536 C0.488459959,16.698152 0.784969199,16.4219302 0.989404517,16.0750924 C2.2612731,13.9211088 8.08104723,0.295728953 8.08104723,0.295728953 L8.08104723,0.295728953 Z" id="path-1"></path>
        <path d="M9.86673511,0.330451745 C9.86673511,0.330451745 12.3016222,17.6778029 12.9492608,20.3623819 C13.0101232,20.6140246 13.0772279,20.8274333 13.156037,21.0104107 L13.156037,21.0104107 L0.0230184805,21.0104107 C0.265297741,20.6850308 0.423305955,20.3389733 0.482997947,19.9613142 C0.845839425,17.6626809 0.599428386,3.01787885 0.589426808,2.43300622 L0.589117043,2.41498973 L9.86673511,0.330451745 Z" id="path-3"></path>
    </defs>
    <g id="购物1" stroke="none" stroke-width="1" fill="none" fill-rule="evenodd">
        <g id="编组" transform="translate(17.000000, 67.000000)">
            <polygon id="Fill-1" fill="#E2CDAF" points="180.228688 366.685292 169.765033 366.685292 171.884294 327.425517 177.691583 327.425517"></polygon>
            <g transform="translate(0.000000, 0.035503)">
                <path d="M251.844057,286.342875 C252.93568,281.6354 251.47186,276.99347 248.184509,273.170842 C245.673544,270.251006 245.420341,266.632813 247.675372,263.704394 C249.568739,261.245708 250.924879,258.506509 251.609971,255.54961 C253.470957,247.524353 250.010772,239.634476 243.087281,233.801828 C239.463626,230.748953 238.218287,226.600164 239.970033,222.875462 C240.387097,221.989836 240.710916,221.065975 240.932517,220.109343 C242.570341,213.04423 238.195269,206.130103 230.499294,202.161561 C226.040341,199.862053 224.283133,195.671129 226.497979,192.148912 C227.538103,190.495092 228.394078,188.721109 228.802949,186.956099 C231.400136,175.755852 220.922435,164.883717 205.400957,162.672382 L205.35531,162.66614 C203.070628,162.34193 201.55492,160.734538 201.953647,159.088522 C201.968082,159.02922 201.982127,158.969918 201.995782,158.910226 C205.320197,144.572053 191.664386,130.659918 171.609437,128.153634 C152.776419,125.799897 134.2403,135.237474 131.077795,148.774292 C130.313893,152.042916 130.434448,155.288522 131.311881,158.382752 C133.248945,165.211437 128.611696,172.060801 119.950895,174.810144 C105.024386,179.54883 93.6673018,189.42961 90.7435647,202.040226 C88.8872608,210.046366 90.7076715,217.959261 95.3156591,224.858953 C99.370423,230.929979 97.470423,238.126961 90.7279589,242.518809 C84.1489651,246.804538 79.4629487,252.684394 77.8676509,259.564579 C75.0414497,271.7554 82.7085544,283.681704 96.1154538,290.414805 C98.624078,291.674579 99.8900945,293.846899 99.3778357,295.987228 C99.3727639,296.007125 99.3684723,296.027413 99.3637906,296.04731 C97.9003614,302.358665 103.804407,308.485092 112.550649,309.730821 C112.617363,309.740575 112.683688,309.749548 112.750012,309.758522 C113.745269,309.89 114.429191,310.573922 114.2626,311.290226 L114.259478,311.304271 C112.198349,320.193696 120.514263,328.822505 132.832661,330.577372 C134.695988,330.842669 136.544489,330.935524 138.346172,330.87115 C142.497302,330.722505 146.50915,332.246407 148.876542,334.78 C156.324386,342.750637 168.011532,348.673409 182.013791,350.55 C208.144448,354.05154 233.868575,341.220883 238.408287,322.424538 C239.362579,318.475503 239.378965,314.547536 238.574099,310.761191 C237.420444,305.33117 239.739458,299.907392 244.980649,296.084374 C248.476337,293.534394 250.951018,290.195154 251.844057,286.342875" id="Fill-2" fill="#C6E7DF"></path>
                <path d="M227.515318,286.763879 C228.102094,282.553448 226.363614,278.520922 223.033347,275.297164 C220.48922,272.834967 219.944189,269.650224 221.747043,266.957452 C223.260411,264.696569 224.258789,262.213304 224.627474,259.56891 C225.627413,252.391825 221.786057,245.582647 214.964784,240.753057 C211.394579,238.224926 209.898768,234.617657 211.172977,231.245255 C211.476119,230.443119 211.691088,229.611723 211.810472,228.756138 C212.691027,222.43776 208.099425,216.533324 200.735462,213.386815 C196.46885,211.563283 194.502136,207.942749 196.216427,204.727575 C197.021294,203.217719 197.647864,201.610717 197.868296,200.032195 C199.26384,190.015255 188.763121,180.898766 174.413634,179.670203 L174.371499,179.666692 C172.259261,179.487226 170.73692,178.137719 170.958131,176.664926 C170.966324,176.611867 170.973737,176.558807 170.98115,176.505357 C172.768008,163.682113 159.104004,152.02852 140.593634,150.750799 C123.211951,149.551107 107.124374,158.754988 105.415154,170.862318 C105.002382,173.785665 105.394086,176.64776 106.46347,179.340532 C108.82306,185.282811 105.18848,191.55086 97.5272279,194.384474 C84.3243737,199.267903 74.8235934,208.528355 73.2520945,219.80624 C72.2541068,226.966158 74.6019918,233.872483 79.4038809,239.753119 C83.6291376,244.927595 82.5215195,251.374331 76.7528542,255.569936 C71.1246407,259.663324 67.360924,265.077349 66.5033881,271.230306 C64.9841684,282.132873 73.0129363,292.311333 85.8264271,297.634064 C88.2242505,298.630101 89.5675154,300.489916 89.2858316,302.405131 C89.2831006,302.423078 89.2811499,302.440634 89.2784189,302.458581 C88.4918891,308.103181 94.4091992,313.239813 102.494928,313.932318 C102.556181,313.93739 102.617433,313.942462 102.679076,313.947144 C103.598255,314.016979 104.281786,314.58932 104.191663,315.229936 L104.190103,315.242811 C103.082485,323.19277 111.416345,330.427595 122.804641,331.402955 C124.527515,331.550429 126.221129,331.546138 127.858953,331.404906 C131.632423,331.079916 135.42423,332.238643 137.803717,334.366487 C145.289014,341.060963 156.463511,345.74776 169.397947,346.7516 C193.53614,348.62546 215.884743,336.087801 218.393758,319.269094 C218.921232,315.735563 218.594682,312.264844 217.53193,308.957205 C216.008029,304.213838 217.652485,299.313632 222.100903,295.690758 C225.067947,293.274598 227.035441,290.209238 227.515318,286.763879" id="Fill-4" fill="#F4FFD4"></path>
                <polygon id="Fill-6" fill="#D6B88D" points="52.3435113 240.48577 105.13191 240.48577 105.13191 201.64462 52.3435113 201.64462"></polygon>
                <polygon id="Fill-8" fill="#58B9A0" points="52.3435113 296.392587 105.13191 296.392587 105.13191 240.48577 52.3435113 240.48577"></polygon>
                <polygon id="Fill-9" fill="#CBC7FF" points="91.9349076 240.48577 105.13191 240.48577 105.13191 201.64462 91.9349076 201.64462"></polygon>
                <polygon id="Fill-10" fill="#CBC7FF" points="91.9349076 296.392587 105.13191 296.392587 105.13191 240.48577 91.9349076 240.48577"></polygon>
                <polygon id="Fill-11" fill="#41B093" points="97.0988501 240.48577 149.887248 240.48577 149.887248 201.64462 97.0988501 201.64462"></polygon>
                <polygon id="Fill-12" fill="#21718F" points="97.0988501 296.392587 149.887248 296.392587 149.887248 240.48577 97.0988501 240.48577"></polygon>
                <polygon id="Fill-13" fill="#CBC7FF" points="136.690246 240.48577 149.887248 240.48577 149.887248 201.64462 136.690246 201.64462"></polygon>
                <polygon id="Fill-14" fill="#CBC7FF" points="136.690246 296.392587 149.887248 296.392587 149.887248 240.48577 136.690246 240.48577"></polygon>
                <path d="M37.3204025,299.680914 C36.439848,299.680914 35.6747762,299.075411 35.4726817,298.217875 L14.6655359,209.922105 L2.07211838,209.922105 C1.02380216,209.922105 0.173678957,209.071982 0.173678957,208.023665 C0.173678957,206.975349 1.02380216,206.125616 2.07211838,206.125616 L16.1687598,206.125616 C17.0497043,206.125616 17.814386,206.731119 18.0164805,207.588265 L38.8232361,295.884425 L150.28145,295.884425 L166.397117,232.700647 L27.8289856,232.700647 C26.7810595,232.700647 25.9309363,231.850914 25.9309363,230.802598 C25.9309363,229.754281 26.7810595,228.904158 27.8289856,228.904158 L168.840197,228.904158 C169.426583,228.904158 169.979807,229.174918 170.33952,229.638018 C170.698842,230.100729 170.824468,230.703891 170.679725,231.27155 L153.595721,298.251817 C153.381142,299.092577 152.624263,299.680914 151.756193,299.680914 L37.3204025,299.680914 Z" id="Fill-15" fill="#707D82"></path>
                <path d="M147.959899,350.933004 L58.8686263,350.933004 C45.9404333,350.933004 35.4221581,340.415119 35.4221581,327.486536 L35.4221581,297.782943 C35.4221581,296.734626 36.2722813,295.884503 37.3202074,295.884503 C38.3689138,295.884503 39.2186468,296.734626 39.2186468,297.782943 L39.2186468,327.486536 C39.2186468,338.321608 48.0335544,347.136906 58.8686263,347.136906 L147.959899,347.136906 C149.008216,347.136906 149.857949,347.986639 149.857949,349.034955 C149.857949,350.083271 149.008216,350.933004 147.959899,350.933004" id="Fill-16" fill="#707D82"></path>
                <path d="M145.338641,355.81417 C145.338641,361.10569 141.04862,365.39571 135.75671,365.39571 C130.465191,365.39571 126.175561,361.10569 126.175561,355.81417 C126.175561,350.522651 130.465191,346.23263 135.75671,346.23263 C141.04862,346.23263 145.338641,350.522651 145.338641,355.81417" id="Fill-17" fill="#41B093"></path>
                <path d="M141.828869,355.81417 C141.828869,359.167456 139.110347,361.885977 135.757062,361.885977 C132.403776,361.885977 129.685255,359.167456 129.685255,355.81417 C129.685255,352.460885 132.403776,349.742363 135.757062,349.742363 C139.110347,349.742363 141.828869,352.460885 141.828869,355.81417" id="Fill-18" fill="#126888"></path>
                <path d="M77.5446509,355.81417 C77.5446509,361.10569 73.2550205,365.39571 67.9631109,365.39571 C62.6715914,365.39571 58.3815708,361.10569 58.3815708,355.81417 C58.3815708,350.522651 62.6715914,346.23263 67.9631109,346.23263 C73.2550205,346.23263 77.5446509,350.522651 77.5446509,355.81417" id="Fill-19" fill="#41B093"></path>
                <path d="M74.0349179,355.81417 C74.0349179,359.167456 71.3163963,361.885977 67.9631109,361.885977 C64.6098255,361.885977 61.8913039,359.167456 61.8913039,355.81417 C61.8913039,352.460885 64.6098255,349.742363 67.9631109,349.742363 C71.3163963,349.742363 74.0349179,352.460885 74.0349179,355.81417" id="Fill-20" fill="#126888"></path>
                <path d="M162.331975,254.123439 L28.6429815,254.123439 C28.0437207,254.123439 27.5583819,253.63771 27.5583819,253.03884 C27.5583819,252.439969 28.0437207,251.95385 28.6429815,251.95385 L162.331975,251.95385 C162.931236,251.95385 163.416575,252.439969 163.416575,253.03884 C163.416575,253.63771 162.931236,254.123439 162.331975,254.123439" id="Fill-21" fill="#707D82"></path>
                <path d="M156.095021,276.902255 L32.7105031,276.902255 C32.1116324,276.902255 31.6259035,276.416526 31.6259035,275.817655 C31.6259035,275.218394 32.1116324,274.732665 32.7105031,274.732665 L156.095021,274.732665 C156.694281,274.732665 157.17962,275.218394 157.17962,275.817655 C157.17962,276.416526 156.694281,276.902255 156.095021,276.902255" id="Fill-22" fill="#707D82"></path>
                <path d="M99.690653,298.325125 C99.0913922,298.325125 98.6060534,297.839396 98.6060534,297.240526 L98.6060534,230.802559 C98.6060534,230.203688 99.0913922,229.717569 99.690653,229.717569 C100.289524,229.717569 100.775253,230.203688 100.775253,230.802559 L100.775253,297.240526 C100.775253,297.839396 100.289524,298.325125 99.690653,298.325125" id="Fill-23" fill="#707D82"></path>
                <path d="M126.267283,297.782747 C126.224368,297.782747 126.181062,297.780407 126.137366,297.774945 C125.542786,297.703938 125.11792,297.16437 125.188536,296.5694 L133.053053,230.674123 C133.123669,230.079154 133.661678,229.655848 134.258207,229.725294 C134.853177,229.7963 135.278043,230.336259 135.207037,230.930838 L127.34291,296.826505 C127.277366,297.377778 126.808803,297.782747 126.267283,297.782747" id="Fill-24" fill="#707D82"></path>
                <path d="M67.1487248,298.053858 C66.5798953,298.053858 66.1023593,297.611045 66.0672464,297.035973 L61.9996078,230.869156 C61.9625441,230.271066 62.4174517,229.756466 63.0155421,229.719793 C63.6128522,229.680388 64.128232,230.138027 64.1649055,230.736117 L68.232154,296.902544 C68.2692177,297.500634 67.8143101,298.015234 67.2162197,298.051908 C67.1935914,298.053858 67.1713532,298.053858 67.1487248,298.053858" id="Fill-25" fill="#707D82"></path>
                <path d="M494.162918,250.587918 C493.292507,241.126542 485.530598,233.663873 475.940474,233.263585 C475.418462,212.909786 458.767517,196.567446 438.288092,196.567446 C417.479386,196.567446 400.611131,213.43609 400.611131,234.244407 C400.611131,244.70455 404.875012,254.167097 411.757538,260.993441 L411.757538,332.734242 L514.586552,332.734242 C524.478647,323.993852 530.719386,311.215084 530.719386,296.976789 C530.719386,274.470177 515.130803,255.607117 494.162918,250.587918" id="Fill-26" fill="#C6E7DF"></path>
                <path d="M487.47484,261.579008 C483.910487,261.579008 480.440938,261.93638 477.109111,262.611719 C479.383649,258.418454 480.659029,253.722684 480.659029,248.763567 C480.659029,231.022951 464.358433,216.640692 444.250815,216.640692 C424.142807,216.640692 407.842602,231.022951 407.842602,248.763567 C407.842602,257.681862 411.96252,265.749255 418.61369,271.569419 L418.61369,332.734203 L517.979789,332.734203 C527.53909,325.282458 533.569542,314.387304 533.569542,302.247982 C533.569542,279.787016 512.932109,261.579008 487.47484,261.579008" id="Fill-27" fill="#F4FFD4"></path>
                <path d="M497.732109,285.470552 C498.864306,282.576466 495.07445,282.166035 495.31946,278.989875 C495.553546,275.956117 491.81948,276.592051 491.018515,273.582483 C490.246031,270.679033 486.966873,272.540018 485.072335,270.105522 C483.244511,267.757246 480.980117,270.782031 478.251452,269.403263 C475.590281,268.059218 474.847448,271.780409 471.78677,271.659074 C468.71868,271.537739 469.663998,275.243324 466.686031,276.253407 C463.812622,277.228766 465.867119,280.444331 463.376832,282.298684 C460.915805,284.130799 463.866462,286.557493 461.973875,289.059485 C460.129665,291.496713 463.606236,293.052996 462.469357,295.958786 C461.33716,298.852483 465.126626,299.263304 464.882006,302.439464 C464.64792,305.473222 468.381986,304.837678 469.182951,307.846466 C469.955825,310.749916 473.234203,308.88893 475.129131,311.323817 C476.956565,313.672483 479.221349,310.647308 481.950014,312.025686 C484.610795,313.370511 485.354018,309.64893 488.414696,309.770265 C491.482396,309.8916 490.537858,306.185624 493.515435,305.175542 C496.389234,304.200573 494.334347,300.985008 496.824244,299.131045 C499.285661,297.29815 496.335004,294.871456 498.227982,292.369854 C500.071801,289.932626 496.59484,288.376733 497.732109,285.470552" id="Fill-28" fill="#9CD6C7"></path>
                <path d="M483.166873,332.640062 C481.194306,280.345195 480.386708,292.210637 480.14677,285.554004 C479.911903,281.748152 480.656688,261.024887 478.95137,284.617269 C478.366934,292.601561 478.413361,317.810698 477.62332,332.583881 C478.822622,333.564312 481.966791,333.548316 483.166873,332.640062" id="Fill-29" fill="#435565"></path>
                <polygon id="Fill-30" fill="#FFFAE3" points="514.760517 332.65832 494.338444 332.65832 494.338444 304.201626 504.717047 297.505199 514.760517 304.201626"></polygon>
                <polygon id="Fill-31" fill="#FAF8DC" points="487.420103 332.658398 494.338522 332.658398 494.338522 304.201704 487.420103 304.201704"></polygon>
                <polygon id="Fill-32" fill="#CBC7FF" points="487.420103 332.658398 494.338522 332.658398 494.338522 304.201704 487.420103 304.201704"></polygon>
                <path d="M494.338561,304.201665 C485.170573,304.201665 484.726589,305.939366 497.798355,297.505238 C506.966343,297.505238 507.410326,295.767538 494.338561,304.201665" id="Fill-33" fill="#E85F5B"></path>
                <path d="M503.46769,312.480008 C503.46769,307.458858 502.807567,308.476353 505.631817,308.476353 C505.631817,313.497503 506.29194,312.480008 503.46769,312.480008" id="Fill-34" fill="#646E6E"></path>
                <path d="M503.46769,322.217801 C503.46769,317.196651 502.807567,318.214536 505.631817,318.214536 C505.631817,323.235686 506.29194,322.217801 503.46769,322.217801" id="Fill-35" fill="#646E6E"></path>
                <path d="M489.797405,332.65832 C489.797405,326.150333 489.075639,327.234932 491.961142,327.234932 C491.961142,333.74292 492.682908,332.65832 489.797405,332.65832" id="Fill-36" fill="#646E6E"></path>
                <path d="M538.573018,308.553992 C561.273532,328.044793 583.872608,301.009002 552.321294,266.948674 C554.59232,228.058366 520.958809,227.810234 523.763162,266.111425 C491.637947,300.791302 514.749281,329.009618 538.573018,308.553992" id="Fill-37" fill="#85CDBA"></path>
                <path d="M544.933415,333.219737 C543.279205,297.716657 538.952511,302.264953 540.092121,290.986678 C541.921115,277.681606 538.767193,274.890517 537.868692,269.960661 C537.34863,263.907971 539.40976,258.007437 537.964277,253.12908 C536.881628,253.502057 539.104667,251.332858 536.376002,263.015713 C533.509226,275.362591 538.553394,278.288279 535.464626,287.432078 C531.037275,300.522571 536.726741,298.189901 533.569698,332.956 C536.011608,333.710538 542.472778,334.404604 544.933415,333.219737" id="Fill-38" fill="#F4A393"></path>
                <path d="M554.177598,338.45886 L445.435955,338.45886 L445.435955,332.854836 L554.177598,332.854836 C555.724908,332.854836 556.97961,334.109148 556.97961,335.656848 C556.97961,337.204548 555.724908,338.45886 554.177598,338.45886" id="Fill-39" fill="#89B3C3"></path>
                <path d="M209.95807,332.671117 L209.95807,21.5560657 C209.95807,9.84668172 219.450267,0.354874743 231.159651,0.354874743 L427.490513,0.354874743 C439.199897,0.354874743 448.691704,9.84668172 448.691704,21.5560657 L448.691704,332.671117 C448.691704,344.380111 439.199897,353.872308 427.490513,353.872308 L231.159651,353.872308 C219.450267,353.872308 209.95807,344.380111 209.95807,332.671117" id="Fill-40" fill="#97ACB3"></path>
                <path d="M206.117222,334.782224 L206.117222,24.537193 C206.117222,12.1540308 216.15562,2.11563244 228.538782,2.11563244 L424.853649,2.11563244 C437.236811,2.11563244 447.2756,12.1540308 447.2756,24.537193 L447.2756,334.782224 C447.2756,347.165386 437.236811,357.203784 424.853649,357.203784 L228.538782,357.203784 C216.15562,357.203784 206.117222,347.165386 206.117222,334.782224" id="Fill-41" fill="#0C252E"></path>
                <path d="M208.517893,335.786727 L208.517893,22.0682464 C208.517893,11.0782875 217.427216,2.16857495 228.417565,2.16857495 L427.351856,2.16857495 C438.342205,2.16857495 447.251528,11.0782875 447.251528,22.0682464 L447.251528,335.786727 C447.251528,346.777076 438.342205,355.686398 427.351856,355.686398 L228.417565,355.686398 C217.427216,355.686398 208.517893,346.777076 208.517893,335.786727" id="Fill-42" fill="#184657"></path>
                <polygon id="Fill-43" fill="#FFFFFF" points="213.494333 332.734086 442.27501 332.734086 442.27501 25.1209651 213.494333 25.1209651"></polygon>
                <path d="M212.29386,333.934168 L443.475092,333.934168 L443.475092,23.920883 L212.29386,23.920883 L212.29386,333.934168 Z M213.494333,332.734086 L442.27501,332.734086 L442.27501,25.1209651 L213.494333,25.1209651 L213.494333,332.734086 Z" id="Fill-44" fill="#000000"></path>
                <path d="M318.136852,343.410526 C318.136852,342.710608 318.704121,342.142949 319.404039,342.142949 L334.358248,342.142949 C335.058166,342.142949 335.625435,342.710608 335.625435,343.410526 C335.625435,344.110444 335.058166,344.677713 334.358248,344.677713 L319.404039,344.677713 C318.704121,344.677713 318.136852,344.110444 318.136852,343.410526" id="Fill-45" fill="#035E80"></path>
                <path d="M326.881183,16.2510082 C325.820772,16.2510082 324.960895,15.3911314 324.960895,14.3307207 C324.960895,13.2699199 325.820772,12.4104333 326.881183,12.4104333 C327.941984,12.4104333 328.80147,13.2699199 328.80147,14.3307207 C328.80147,15.3911314 327.941984,16.2510082 326.881183,16.2510082" id="Fill-46" fill="#000000"></path>
                <polygon id="Fill-47" fill="#F7F7EF" points="213.494333 102.747864 442.27501 102.747864 442.27501 24.3406776 213.494333 24.3406776"></polygon>
                <polygon id="Fill-48" fill="#0D232B" points="213.494333 32.5255031 442.27501 32.5255031 442.27501 24.3406776 213.494333 24.3406776"></polygon>
                <path d="M229.852357,28.3250595 C229.852357,29.0737454 229.244903,29.680809 228.496218,29.680809 C227.747142,29.680809 227.140468,29.0737454 227.140468,28.3250595 C227.140468,27.5763737 227.747142,26.9689199 228.496218,26.9689199 C229.244903,26.9689199 229.852357,27.5763737 229.852357,28.3250595" id="Fill-49" fill="#E6E5CE"></path>
                <path d="M239.343462,28.3250595 C239.343462,29.0737454 238.736008,29.680809 237.987322,29.680809 C237.238637,29.680809 236.631573,29.0737454 236.631573,28.3250595 C236.631573,27.5763737 237.238637,26.9689199 237.987322,26.9689199 C238.736008,26.9689199 239.343462,27.5763737 239.343462,28.3250595" id="Fill-50" fill="#E6E5CE"></path>
                <path d="M220.903435,28.3250595 C220.903435,29.0737454 220.296372,29.680809 219.547296,29.680809 C218.79861,29.680809 218.191546,29.0737454 218.191546,28.3250595 C218.191546,27.5763737 218.79861,26.9689199 219.547296,26.9689199 C220.296372,26.9689199 220.903435,27.5763737 220.903435,28.3250595" id="Fill-51" fill="#E6E5CE"></path>
                <path d="M433.775612,28.3250595 C433.775612,29.0737454 433.168548,29.680809 432.419472,29.680809 C431.670786,29.680809 431.064113,29.0737454 431.064113,28.3250595 C431.064113,27.5763737 431.670786,26.9689199 432.419472,26.9689199 C433.168548,26.9689199 433.775612,27.5763737 433.775612,28.3250595" id="Fill-52" fill="#E6E5CE"></path>
                <path d="M426.905805,28.3250595 C426.905805,29.0737454 426.298741,29.680809 425.550055,29.680809 C424.800979,29.680809 424.194306,29.0737454 424.194306,28.3250595 C424.194306,27.5763737 424.800979,26.9689199 425.550055,26.9689199 C426.298741,26.9689199 426.905805,27.5763737 426.905805,28.3250595" id="Fill-53" fill="#E6E5CE"></path>
                <polygon id="Fill-54" fill="#E6E5CE" points="319.430452 29.4999384 334.43538 29.4999384 334.43538 26.7880493 319.430452 26.7880493"></polygon>
                <path d="M511.035854,107.767142 C511.035854,119.529195 501.501131,129.064308 489.738688,129.064308 C477.977025,129.064308 468.441522,119.529195 468.441522,107.767142 C468.441522,96.0050883 477.977025,86.4703655 489.738688,86.4703655 C501.501131,86.4703655 511.035854,96.0050883 511.035854,107.767142" id="Fill-55" fill="#FFFFFF"></path>
                <path d="M489.738766,87.2836201 C478.444105,87.2836201 469.255049,96.4726756 469.255049,107.766947 C469.255049,119.061998 478.444105,128.250663 489.738766,128.250663 C501.033427,128.250663 510.222483,119.061998 510.222483,107.766947 C510.222483,96.4726756 501.033427,87.2836201 489.738766,87.2836201 M489.738766,129.877953 C477.547164,129.877953 467.62815,119.958938 467.62815,107.766947 C467.62815,95.575345 477.547164,85.6567207 489.738766,85.6567207 C501.930758,85.6567207 511.849382,95.575345 511.849382,107.766947 C511.849382,119.958938 501.930758,129.877953 489.738766,129.877953" id="Fill-56" fill="#F3AAA8"></path>
                <path d="M511.035854,168.467265 C511.035854,180.229318 501.501131,189.764431 489.738688,189.764431 C477.977025,189.764431 468.441522,180.229318 468.441522,168.467265 C468.441522,156.705211 477.977025,147.170489 489.738688,147.170489 C501.501131,147.170489 511.035854,156.705211 511.035854,168.467265" id="Fill-57" fill="#FFFFFF"></path>
                <path d="M489.738766,147.983743 C478.444105,147.983743 469.255049,157.172799 469.255049,168.46746 C469.255049,179.762121 478.444105,188.950786 489.738766,188.950786 C501.033427,188.950786 510.222483,179.762121 510.222483,168.46746 C510.222483,157.172799 501.033427,147.983743 489.738766,147.983743 M489.738766,190.578076 C477.547164,190.578076 467.62815,180.659062 467.62815,168.46746 C467.62815,156.275468 477.547164,146.356844 489.738766,146.356844 C501.930758,146.356844 511.849382,156.275468 511.849382,168.46746 C511.849382,180.659062 501.930758,190.578076 489.738766,190.578076" id="Fill-58" fill="#035E80"></path>
                <path d="M502.300302,103.203513 C501.658515,101.211049 500.195476,99.5876612 498.280261,98.743 C496.111452,97.7883183 493.868125,98.0582977 491.784368,99.5314805 C491.018515,100.081193 490.329912,100.731172 489.737283,101.463862 C489.144655,100.731172 488.456441,100.081193 487.690589,99.5314805 C485.610343,98.050885 483.363505,97.7844168 481.194306,98.7394887 C479.281821,99.5786879 477.819172,101.195053 477.174655,103.181275 C476.48215,105.272055 476.706873,107.557908 477.792643,109.473903 C479.643485,112.738626 483.370528,116.391932 488.897304,120.333945 C489.411903,120.70185 490.103238,120.70185 490.618618,120.333945 C496.118474,116.399345 499.846298,112.745649 501.700651,109.477415 C502.774717,107.56376 502.992027,105.286101 502.300302,103.203513" id="Fill-59" fill="#E85F5B"></path>
                <path d="M497.731368,173.702955 C497.731368,171.658992 496.723626,170.392195 495.313257,170.392195 C493.873626,170.392195 492.895146,171.658992 492.895146,173.702955 C492.895146,175.718437 493.873626,176.984844 495.313257,176.984844 C496.723626,176.984844 497.731368,175.718437 497.731368,173.702955 M490.390423,173.702955 C490.390423,170.219361 492.577959,168.348232 495.284386,168.348232 C497.990423,168.348232 500.178349,170.219361 500.178349,173.702955 C500.178349,177.157678 497.990423,179.028807 495.284386,179.028807 C492.577959,179.028807 490.390423,177.157678 490.390423,173.702955 M481.983606,177.848622 L494.219294,158.76123 C494.680053,158.012934 494.852497,157.926322 495.94646,157.926322 C496.867589,157.926322 497.213257,158.099156 496.723626,158.847842 L484.488329,177.934844 C483.999088,178.68353 483.825864,178.769752 482.732292,178.769752 C481.840033,178.769752 481.494366,178.596918 481.983606,177.848622 M485.755125,162.993509 C485.755125,160.978027 484.747384,159.71123 483.336624,159.71123 C481.897384,159.71123 480.918513,160.978027 480.918513,162.993509 C480.918513,165.037472 481.897384,166.304269 483.336624,166.304269 C484.747384,166.304269 485.755125,165.037472 485.755125,162.993509 M478.413791,162.993509 C478.413791,159.538786 480.601717,157.667267 483.307754,157.667267 C486.014181,157.667267 488.202107,159.538786 488.202107,162.993509 C488.202107,166.477103 486.014181,168.348232 483.307754,168.348232 C480.601717,168.348232 478.413791,166.477103 478.413791,162.993509" id="Fill-60" fill="#184657"></path>
                <polygon id="Fill-61" fill="#F7F7EF" points="213.494333 332.734086 442.27501 332.734086 442.27501 245.228357 213.494333 245.228357"></polygon>
                <polygon id="Fill-62" fill="#ECECDB" points="213.494333 104.043142 442.27501 104.043142 442.27501 101.452197 213.494333 101.452197"></polygon>
                <path d="M249.39653,51.8169405 C249.048522,51.8169405 248.715339,51.9043326 248.469548,52.1501232 L241.383368,59.2363039 C240.969035,59.6506366 240.736509,60.2124435 240.736509,60.7984394 L240.736509,85.8222587 C240.736509,86.1562218 241.006879,86.4265914 241.341232,86.4265914 L266.778604,86.4265914 C267.251458,86.4265914 267.704415,86.2389322 268.038768,85.9049692 L275.10037,78.8433676 C275.375421,78.5679261 275.529918,78.1945585 275.529918,77.8051951 L275.529918,52.4821355 C275.529918,52.1434908 275.256427,51.8181109 274.918172,51.8169405 L249.39653,51.8169405 Z" id="Fill-63" fill="#E595B1"></path>
                <path d="M248.507626,52.1120452 L241.138982,59.4806899 C240.990337,59.6293347 241.095676,59.8833183 241.305963,59.8833183 L267.51699,59.8833183 L275.113088,52.2872197 C275.294505,52.1054127 275.166148,51.7812033 274.909823,51.7808121 L249.342534,51.7808121 C249.029248,51.780423 248.728838,51.8908337 248.507626,52.1120452" id="Fill-64" fill="#FFFFFF"></path>
                <path d="M267.498185,86.4267864 L275.530074,78.4132341 L275.530074,52.3727002 C275.530074,52.1596817 275.272969,52.0535626 275.122374,52.203768 L267.498185,59.8462936 L267.498185,86.4267864 Z" id="Fill-65" fill="#CBC7FF"></path>
                <path d="M262.273926,107.056768 L246.003372,107.056768 C244.50561,107.056768 243.291873,105.842641 243.291873,104.344879 L243.291873,101.452353 C243.291873,99.9545914 244.50561,98.7408542 246.003372,98.7408542 L262.273926,98.7408542 C263.771688,98.7408542 264.985425,99.9545914 264.985425,101.452353 L264.985425,104.344879 C264.985425,105.842641 263.771688,107.056768 262.273926,107.056768" id="Fill-66" fill="#45565C"></path>
                <path d="M325.850189,107.056768 L309.579634,107.056768 C308.081873,107.056768 306.867745,105.842641 306.867745,104.344879 L306.867745,101.452353 C306.867745,99.9545914 308.081873,98.7408542 309.579634,98.7408542 L325.850189,98.7408542 C327.347561,98.7408542 328.561688,99.9545914 328.561688,101.452353 L328.561688,104.344879 C328.561688,105.842641 327.347561,107.056768 325.850189,107.056768" id="Fill-67" fill="#45565C"></path>
                <path d="M397.982577,107.056768 L381.712023,107.056768 C380.214261,107.056768 379.000524,105.842641 379.000524,104.344879 L379.000524,101.452353 C379.000524,99.9545914 380.214261,98.7408542 381.712023,98.7408542 L397.982577,98.7408542 C399.480339,98.7408542 400.694466,99.9545914 400.694466,101.452353 L400.694466,104.344879 C400.694466,105.842641 399.480339,107.056768 397.982577,107.056768" id="Fill-68" fill="#45565C"></path>
                <polygon id="Fill-69" fill="#ECECDB" points="213.494333 308.330595 442.27501 308.330595 442.27501 305.739651 213.494333 305.739651"></polygon>
                <path d="M273.122146,311.344066 L256.851591,311.344066 C255.35383,311.344066 254.139702,310.129938 254.139702,308.632567 L254.139702,305.740041 C254.139702,304.242279 255.35383,303.028152 256.851591,303.028152 L273.122146,303.028152 C274.619517,303.028152 275.833645,304.242279 275.833645,305.740041 L275.833645,308.632567 C275.833645,310.129938 274.619517,311.344066 273.122146,311.344066" id="Fill-70" fill="#45565C"></path>
                <path d="M336.698018,311.344066 L320.427854,311.344066 C318.930092,311.344066 317.715965,310.129938 317.715965,308.632567 L317.715965,305.740041 C317.715965,304.242279 318.930092,303.028152 320.427854,303.028152 L336.698018,303.028152 C338.19578,303.028152 339.409908,304.242279 339.409908,305.740041 L339.409908,308.632567 C339.409908,310.129938 338.19578,311.344066 336.698018,311.344066" id="Fill-71" fill="#45565C"></path>
                <path d="M399.067294,311.344066 L382.797129,311.344066 C381.299368,311.344066 380.08524,310.129938 380.08524,308.632567 L380.08524,305.740041 C380.08524,304.242279 381.299368,303.028152 382.797129,303.028152 L399.067294,303.028152 C400.565055,303.028152 401.779183,304.242279 401.779183,305.740041 L401.779183,308.632567 C401.779183,310.129938 400.565055,311.344066 399.067294,311.344066" id="Fill-72" fill="#45565C"></path>
                <path d="M364.949536,151.136924 C365.019762,150.749511 365.090378,150.414378 365.160994,150.132304 C365.23161,149.85062 365.297544,149.581421 365.359577,149.325487 C365.42083,149.070333 365.495737,148.801524 365.5843,148.51945 C365.672472,148.237376 365.777811,147.902242 365.901487,147.514439 L365.769618,147.43524 C365.505101,147.8406 365.275696,148.188608 365.081795,148.479265 C364.887503,148.770312 364.698283,149.043803 364.513355,149.299347 C364.328037,149.554891 364.125552,149.819409 363.905121,150.092509 C363.68469,150.366 363.415881,150.696452 363.098694,151.084255 L362.173273,152.221133 C361.961815,152.468094 361.789762,152.670579 361.657503,152.829368 C361.525634,152.988156 361.393376,153.137971 361.261117,153.278813 C361.128858,153.420045 360.9966,153.560887 360.864341,153.701729 C360.732082,153.843351 360.560029,154.019306 360.348571,154.230764 L360.375101,154.336493 C360.603725,154.318936 360.793725,154.30138 360.94354,154.283433 C361.092965,154.266267 361.24317,154.24871 361.393376,154.230764 C361.542801,154.213207 361.697298,154.204234 361.855696,154.204234 L362.46393,154.204234 L364.394361,154.204234 L364.949536,151.136924 Z M355.959454,154.62715 L364.632349,144.3414 L370.264464,144.3414 L368.810398,153.411072 C368.774895,153.62253 368.747975,153.772345 368.730809,153.860517 C368.712862,153.94908 368.67814,154.080949 368.62508,154.257294 C368.818982,154.222181 368.964115,154.204234 369.061261,154.204234 L369.497441,154.204234 L370.899228,154.204234 L370.317524,157.800579 L368.122575,157.800579 L367.488201,161.713721 L363.204423,161.713721 L363.706538,158.593741 C363.741651,158.381893 363.768571,158.232468 363.786127,158.143906 C363.803294,158.056123 363.838797,157.923864 363.891856,157.74752 C363.697565,157.783023 363.552431,157.800579 363.455676,157.800579 L363.019495,157.800579 L355.456949,157.800579 L355.959454,154.62715 Z" id="Fill-73" fill="#035E80"></path>
                <path d="M371.876889,156.028741 C372.405534,156.451657 372.881899,156.809029 373.304815,157.099686 C373.728121,157.390343 374.124897,157.624429 374.494754,157.800384 C374.865,157.976729 375.221982,158.100405 375.565698,158.17063 C375.909415,158.241246 376.274979,158.276359 376.663172,158.276359 C377.597177,158.276359 378.346253,158.020815 378.9104,157.509337 C379.474548,156.998248 379.756622,156.319789 379.756622,155.473567 C379.756622,154.645292 379.470257,154.005846 378.897526,153.5564 C378.324405,153.106955 377.509394,152.882232 376.451715,152.882232 C375.887177,152.882232 375.32771,152.926318 374.772536,153.014101 C374.216971,153.102663 373.551386,153.252478 372.77617,153.463936 L375.526294,144.341205 L384.939292,144.341205 L384.251858,148.201678 L378.408285,148.201678 L378.064179,149.259357 C377.976006,149.506708 377.90578,149.691637 377.852721,149.814922 C377.800051,149.938598 377.703296,150.123526 377.562064,150.370097 L377.641263,150.423156 C377.940893,150.264368 378.223357,150.154347 378.487485,150.092704 C378.752002,150.030671 379.042659,149.99985 379.360236,149.99985 C380.117895,149.99985 380.805329,150.123526 381.422536,150.370097 C382.039353,150.617057 382.568388,150.969747 383.009251,151.427776 C383.449723,151.886195 383.789148,152.437078 384.027526,153.080425 C384.265123,153.724162 384.384117,154.442417 384.384117,155.235579 C384.384117,156.275702 384.199189,157.21868 383.828943,158.064901 C383.458696,158.911123 382.942926,159.642643 382.282023,160.25946 C381.621119,160.876667 380.823275,161.352643 379.888881,161.687386 C378.954487,162.022129 377.93231,162.189891 376.821961,162.189891 C375.605493,162.189891 374.51231,162.017838 373.543193,161.674121 C372.573296,161.330405 371.647875,160.788495 370.76654,160.048002 L371.876889,156.028741 Z" id="Fill-74" fill="#035E80"></path>
                <path d="M392.591064,147.248595 C392.222768,147.248595 391.920407,147.366419 391.68515,147.602066 C391.449113,147.838103 391.33129,148.140074 391.33129,148.50837 C391.33129,148.868472 391.451454,149.166542 391.691392,149.401799 C391.931331,149.637836 392.231351,149.755269 392.591064,149.755269 C392.968333,149.755269 393.272645,149.639786 393.504,149.408431 C393.735355,149.176686 393.850838,148.877055 393.850838,148.50837 C393.850838,148.122908 393.737306,147.816645 393.510242,147.589191 C393.283179,147.362517 392.976916,147.248595 392.591064,147.248595 L392.591064,147.248595 Z M392.411207,150.989684 C392.128353,151.092292 391.879832,151.143791 391.665643,151.143791 C391.30554,151.143791 390.973528,151.081758 390.669216,150.957302 C390.364903,150.833236 390.103507,150.659622 389.885027,150.43685 C389.666546,150.214078 389.497224,149.948 389.37745,149.639786 C389.257285,149.331183 389.197593,148.988246 389.197593,148.611368 C389.197593,148.140074 389.283035,147.707014 389.454308,147.312969 C389.625581,146.918924 389.863569,146.580279 390.167881,146.297425 C390.471803,146.014571 390.836587,145.7957 391.260674,145.641593 C391.68515,145.487487 392.149811,145.410238 392.655437,145.410238 C393.143897,145.410238 393.591782,145.480854 393.998702,145.622476 C394.405622,145.763708 394.75285,145.965023 395.039996,146.226419 C395.327532,146.488205 395.549914,146.803051 395.708702,147.171347 C395.867101,147.540033 395.94669,147.947343 395.94669,148.392887 C395.94669,148.624242 395.92094,148.857938 395.869441,149.093585 C395.817943,149.329232 395.738353,149.571121 395.631454,149.819643 C395.524554,150.068554 395.384883,150.329561 395.214,150.603832 C395.042337,150.878103 394.836731,151.174222 394.596793,151.491018 C394.390797,151.76529 394.168025,152.043852 393.928476,152.326706 C393.688538,152.609561 393.452501,152.870957 393.221146,153.110505 C393.040899,153.307918 392.753754,153.595064 392.359708,153.971943 L389.480057,153.971943 L391.112809,152.262333 C391.249749,152.116809 391.369914,151.994694 391.472912,151.895988 C391.57552,151.797671 391.672275,151.705207 391.762008,151.619376 C391.851741,151.533934 391.948497,151.445762 392.051105,151.356029 C392.154103,151.265906 392.28285,151.160957 392.436957,151.041183 L392.411207,150.989684 Z" id="Fill-75" fill="#035E80"></path>
                <path d="M399.790035,147.248595 C399.421739,147.248595 399.119378,147.366419 398.884121,147.602066 C398.648084,147.838103 398.530261,148.140074 398.530261,148.50837 C398.530261,148.868472 398.650425,149.166542 398.890363,149.401799 C399.130302,149.637836 399.430322,149.755269 399.790035,149.755269 C400.167304,149.755269 400.471616,149.639786 400.702971,149.408431 C400.934326,149.176686 401.049809,148.877055 401.049809,148.50837 C401.049809,148.122908 400.936277,147.816645 400.709214,147.589191 C400.48215,147.362517 400.175887,147.248595 399.790035,147.248595 L399.790035,147.248595 Z M399.610179,150.989684 C399.327324,151.092292 399.078803,151.143791 398.864614,151.143791 C398.504511,151.143791 398.172499,151.081758 397.868187,150.957302 C397.563875,150.833236 397.302478,150.659622 397.084388,150.43685 C396.865517,150.214078 396.696195,149.948 396.576421,149.639786 C396.456257,149.331183 396.396565,148.988246 396.396565,148.611368 C396.396565,148.140074 396.482006,147.707014 396.653279,147.312969 C396.824552,146.918924 397.06254,146.580279 397.366852,146.297425 C397.670774,146.014571 398.035559,145.7957 398.459645,145.641593 C398.884121,145.487487 399.348782,145.410238 399.854409,145.410238 C400.342869,145.410238 400.790754,145.480854 401.197674,145.622476 C401.604593,145.763708 401.951821,145.965023 402.238967,146.226419 C402.526503,146.488205 402.748885,146.803051 402.907674,147.171347 C403.066072,147.540033 403.145661,147.947343 403.145661,148.392887 C403.145661,148.624242 403.119912,148.857938 403.068413,149.093585 C403.016914,149.329232 402.937324,149.571121 402.830425,149.819643 C402.723526,150.068554 402.583854,150.329561 402.412971,150.603832 C402.241308,150.878103 402.035702,151.174222 401.795764,151.491018 C401.589768,151.76529 401.366996,152.043852 401.127448,152.326706 C400.887509,152.609561 400.651472,152.870957 400.420117,153.110505 C400.239871,153.307918 399.952725,153.595064 399.55868,153.971943 L396.679029,153.971943 L398.31178,152.262333 C398.448721,152.116809 398.568885,151.994694 398.671883,151.895988 C398.774491,151.797671 398.871246,151.705207 398.960979,151.619376 C399.050713,151.533934 399.147468,151.445762 399.250076,151.356029 C399.353074,151.265906 399.481821,151.160957 399.635928,151.041183 L399.610179,150.989684 Z" id="Fill-76" fill="#035E80"></path>
                <polygon id="Fill-77" fill="#0D232B" points="388.688768 157.185791 402.813142 157.185791 402.813142 155.856961 388.688768 155.856961"></polygon>
                <path d="M346.994887,176.898973 L404.478275,176.898973 L404.478275,174.684127 L346.994887,174.684127 L346.994887,176.898973 Z M346.994887,184.097906 L404.478275,184.097906 L404.478275,181.88306 L346.994887,181.88306 L346.994887,184.097906 Z M346.994887,191.296448 L404.478275,191.296448 L404.478275,189.081602 L346.994887,189.081602 L346.994887,191.296448 Z" id="Fill-78" fill="#0D232B"></path>
                <path d="M267.498185,86.4267864 L275.530074,78.4132341 L286.723688,78.4132341 C287.157528,78.4132341 287.374057,78.9371971 287.067795,79.2438501 L280.740053,85.5712012 C280.291388,86.0202567 279.685105,86.2758008 279.050731,86.2836037 L267.498185,86.4267864 Z" id="Fill-79" fill="#CBC7FF"></path>
                <polygon id="Fill-80" fill="#FFFFFF" points="247.911643 70.0097331 261.045441 70.0097331 261.045441 68.1854209 247.911643 68.1854209"></polygon>
                <polygon id="Fill-81" fill="#FFFFFF" points="247.911643 75.8470637 261.045441 75.8470637 261.045441 74.0227515 247.911643 74.0227515"></polygon>
                <path d="M275.142583,51.9136961 L267.415786,59.6404928 L241.071331,59.6404928 C240.977306,59.7926489 240.9063,59.9565092 240.85168,60.1266119 L267.23632,60.1266119 L267.23632,86.3590965 C267.407984,86.3134497 267.572234,86.2455647 267.72283,86.1511499 L267.72283,60.0212731 L275.485129,52.2589733 C275.423487,52.1009651 275.299811,51.9765092 275.142583,51.9136961" id="Fill-82" fill="#E8A2BB"></path>
                <path d="M320.092916,256.985495 C319.745298,256.985495 319.412115,257.072887 319.166324,257.318678 L312.080144,264.404858 C311.665811,264.819191 311.433285,265.380998 311.433285,265.966994 L311.433285,290.990813 C311.433285,291.324776 311.703655,291.595146 312.038008,291.595146 L337.47538,291.595146 C337.948234,291.595146 338.401191,291.407877 338.735544,291.073524 L345.797146,284.011922 C346.072197,283.73648 346.226694,283.363113 346.226694,282.97414 L346.226694,257.65069 C346.226694,257.312045 345.953203,256.986665 345.614949,256.985495 L320.092916,256.985495 Z" id="Fill-83" fill="#EDEDDC"></path>
                <path d="M319.204441,257.280561 L311.835797,264.649205 C311.687152,264.79785 311.792491,265.051834 312.002778,265.051834 L338.213805,265.051834 L345.809903,257.455735 C345.99132,257.274318 345.862963,256.949718 345.606639,256.949718 L320.038959,256.949718 C319.726064,256.949329 319.425653,257.059349 319.204441,257.280561" id="Fill-84" fill="#FFFFFF"></path>
                <path d="M338.194961,291.595341 L346.22685,283.581789 L346.22685,257.541255 C346.22685,257.328236 345.969745,257.221727 345.81915,257.372322 L338.194961,265.014848 L338.194961,291.595341 Z" id="Fill-85" fill="#CBC7FF"></path>
                <path d="M338.194961,291.595341 L346.22685,283.581789 L357.420464,283.581789 C357.854304,283.581789 358.070834,284.106142 357.764571,284.412405 L351.43683,290.740146 C350.988164,291.188811 350.381881,291.444355 349.747117,291.452158 L338.194961,291.595341 Z" id="Fill-86" fill="#CBC7FF"></path>
                <polygon id="Fill-87" fill="#FFFFFF" points="318.608419 275.178131 331.742218 275.178131 331.742218 273.353819 318.608419 273.353819"></polygon>
                <polygon id="Fill-88" fill="#FFFFFF" points="318.608419 281.015462 331.742218 281.015462 331.742218 279.19115 318.608419 279.19115"></polygon>
                <path d="M345.839359,257.082251 L338.112563,264.809047 L311.768107,264.809047 C311.674082,264.961203 311.603076,265.125064 311.548456,265.295166 L337.933097,265.295166 L337.933097,291.528041 C338.10476,291.482004 338.26901,291.414119 338.419606,291.319704 L338.419606,265.189828 L346.181906,257.427528 C346.120263,257.26952 345.996587,257.145064 345.839359,257.082251" id="Fill-89" fill="#F0F0E3"></path>
                <path d="M255.765704,222.171838 L273.741577,204.356314 L350.29246,204.356314 C351.264698,204.356314 351.751598,205.531817 351.064164,206.219251 L336.869955,220.41346 C335.863384,221.420031 334.502953,222.154281 333.079708,222.171838 L255.765704,222.171838 Z" id="Fill-90" fill="#CBC7FF"></path>
                <path d="M366.373326,51.8169405 C366.025708,51.8169405 365.692526,51.9043326 365.446735,52.1501232 L358.360554,59.2363039 C357.945832,59.6506366 357.713696,60.2124435 357.713696,60.7984394 L357.713696,85.8222587 C357.713696,86.1562218 357.984066,86.4265914 358.318029,86.4265914 L407.107064,86.4265914 C407.579528,86.4265914 408.032875,86.2389322 408.367228,85.9049692 L415.428439,78.8433676 C415.703881,78.5679261 415.858768,78.1945585 415.858768,77.8051951 L415.858768,52.4821355 C415.858768,52.1434908 415.584887,51.8181109 415.246242,51.8169405 L366.373326,51.8169405 Z" id="Fill-91" fill="#54B89E"></path>
                <path d="M365.484852,52.1120452 L358.116207,59.4806899 C357.967563,59.6293347 358.072901,59.8833183 358.282799,59.8833183 L407.845099,59.8833183 L415.441587,52.2872197 C415.623004,52.1054127 415.494647,51.7812033 415.237932,51.7808121 L366.31937,51.7808121 C366.006474,51.780423 365.706064,51.8908337 365.484852,52.1120452" id="Fill-92" fill="#FFFFFF"></path>
                <path d="M407.826489,86.4267864 L415.858768,78.4132341 L415.858768,52.3727002 C415.858768,52.1596817 415.601273,52.0535626 415.450678,52.203768 L407.826489,59.8462936 L407.826489,86.4267864 Z" id="Fill-93" fill="#CBC7FF"></path>
                <path d="M407.826489,86.4267864 L415.858768,78.4132341 L427.052382,78.4132341 C427.485832,78.4132341 427.702752,78.9371971 427.396099,79.2438501 L421.068747,85.5712012 C420.620082,86.0202567 420.013409,86.2758008 419.379035,86.2836037 L407.826489,86.4267864 Z" id="Fill-94" fill="#CBC7FF"></path>
                <polygon id="Fill-95" fill="#FFFFFF" points="364.888439 70.0097331 401.373901 70.0097331 401.373901 68.1854209 364.888439 68.1854209"></polygon>
                <polygon id="Fill-96" fill="#FFFFFF" points="364.888439 75.8470637 401.373901 75.8470637 401.373901 74.0227515 364.888439 74.0227515"></polygon>
                <path d="M415.470848,51.9136961 L407.744441,59.6404928 L358.048322,59.6404928 C357.954298,59.7926489 357.883682,59.9565092 357.828671,60.1266119 L407.564585,60.1266119 L407.564585,86.3590965 C407.736639,86.3134497 407.900499,86.2455647 408.051094,86.1511499 L408.051094,60.0212731 L415.813784,52.2589733 C415.751752,52.1009651 415.628076,51.9765092 415.470848,51.9136961" id="Fill-97" fill="#6FC3AD"></path>
                <path d="M246.257472,257.354103 C245.909854,257.354103 245.576671,257.441495 245.330881,257.687285 L238.2447,264.773466 C237.830368,265.187799 237.597842,265.749606 237.597842,266.335602 L237.597842,291.359421 C237.597842,291.693384 237.868211,291.963754 238.202565,291.963754 L286.991209,291.963754 C287.463674,291.963754 287.917021,291.776485 288.251374,291.442131 L295.312585,284.38053 C295.588027,284.105088 295.742914,283.731721 295.742914,283.342747 L295.742914,258.019298 C295.742914,257.680653 295.469423,257.355273 295.130778,257.354103 L246.257472,257.354103 Z" id="Fill-98" fill="#58B4C9"></path>
                <path d="M245.368959,257.649207 L238.000314,265.017852 C237.851669,265.166497 237.957008,265.42048 238.167296,265.42048 L287.729205,265.42048 L295.325694,257.824382 C295.507111,257.642965 295.379144,257.318364 295.122039,257.318364 L246.203476,257.318364 C245.890581,257.317975 245.59017,257.427996 245.368959,257.649207" id="Fill-99" fill="#FFFFFF"></path>
                <path d="M287.710986,291.963949 L295.742875,283.950396 L295.742875,257.909862 C295.742875,257.696844 295.48538,257.590335 295.334784,257.74093 L287.710986,265.383456 L287.710986,291.963949 Z" id="Fill-100" fill="#CBC7FF"></path>
                <path d="M287.710986,291.963949 L295.742875,283.950396 L306.936489,283.950396 C307.369938,283.950396 307.586858,284.474749 307.280595,284.781012 L300.952854,291.108754 C300.504189,291.557419 299.897906,291.812963 299.263142,291.820766 L287.710986,291.963949 Z" id="Fill-101" fill="#CBC7FF"></path>
                <polygon id="Fill-102" fill="#FFFFFF" points="244.772936 275.546817 281.258008 275.546817 281.258008 273.722505 244.772936 273.722505"></polygon>
                <polygon id="Fill-103" fill="#FFFFFF" points="244.772936 281.384148 281.258008 281.384148 281.258008 279.559836 244.772936 279.559836"></polygon>
                <path d="M295.355384,257.450897 L287.628587,265.177694 L237.932468,265.177694 C237.838444,265.32985 237.767828,265.49371 237.713207,265.663813 L287.448731,265.663813 L287.448731,291.896688 C287.620784,291.850651 287.785035,291.782766 287.93524,291.688351 L287.93524,265.558474 L295.69793,257.796175 C295.636287,257.638166 295.512612,257.51371 295.355384,257.450897" id="Fill-104" fill="#70BFD1"></path>
                <path d="M372.133292,251.930207 C371.785674,251.930207 371.452491,252.0176 371.2067,252.26339 L364.12052,259.349571 C363.706187,259.763903 363.473661,260.32571 363.473661,260.911706 L363.473661,291.359304 C363.473661,291.693267 363.744031,291.964027 364.078384,291.964027 L407.443251,291.964027 C407.915715,291.964027 408.369062,291.776368 408.703025,291.442014 L415.764626,284.380413 C416.040068,284.105361 416.194175,283.731994 416.194175,283.34263 L416.194175,252.595402 C416.194175,252.256758 415.920684,251.931378 415.582429,251.930207 L372.133292,251.930207 Z" id="Fill-105" fill="#EB7572"></path>
                <path d="M371.244817,252.225078 L363.876172,259.593723 C363.727528,259.742368 363.832867,259.996351 364.043154,259.996351 L408.181285,259.996351 L415.777384,252.400253 C415.958801,252.218836 415.830444,251.894235 415.574119,251.894235 L372.079335,251.894235 C371.766439,251.893846 371.466029,252.003867 371.244817,252.225078" id="Fill-106" fill="#FFFFFF"></path>
                <path d="M408.16252,291.963949 L416.194409,283.950396 L416.194409,252.486084 C416.194409,252.273066 415.937304,252.166556 415.786708,252.316762 L408.16252,259.959678 L408.16252,291.963949 Z" id="Fill-107" fill="#CBC7FF"></path>
                <path d="M408.16252,291.963949 L416.194409,283.950396 L427.388023,283.950396 C427.821862,283.950396 428.038782,284.474749 427.732129,284.781012 L421.404778,291.108754 C420.956113,291.557419 420.349439,291.812963 419.715066,291.820766 L408.16252,291.963949 Z" id="Fill-108" fill="#CBC7FF"></path>
                <polygon id="Fill-109" fill="#FFFFFF" points="370.648912 273.377228 401.709815 273.377228 401.709815 271.552916 370.648912 271.552916"></polygon>
                <polygon id="Fill-110" fill="#FFFFFF" points="370.648912 279.214559 401.709815 279.214559 401.709815 277.390246 370.648912 277.390246"></polygon>
                <path d="M415.806879,252.026768 L408.080082,259.753565 L363.808522,259.753565 C363.714497,259.906111 363.643491,260.069581 363.588871,260.240074 L407.900616,260.240074 L407.900616,291.896337 C408.072279,291.85069 408.23653,291.782415 408.387125,291.68839 L408.387125,260.134345 L416.149815,252.372045 C416.087782,252.214427 415.964107,252.089581 415.806879,252.026768" id="Fill-111" fill="#EE8C89"></path>
                <path d="M310.871595,42.0871458 C310.523977,42.0871458 310.190795,42.174538 309.945004,42.4203285 L302.858823,49.5065092 C302.444101,49.9208419 302.211965,50.4826489 302.211965,51.0686448 L302.211965,85.8222587 C302.211965,86.1562218 302.482335,86.4265914 302.816298,86.4265914 L324.848495,86.4265914 C325.320959,86.4265914 325.774306,86.2389322 326.108659,85.9049692 L333.169871,78.8433676 C333.445312,78.5679261 333.600199,78.1945585 333.600199,77.8051951 L333.600199,42.7523409 C333.600199,42.4136961 333.326318,42.0883162 332.988064,42.0871458 L310.871595,42.0871458 Z" id="Fill-112" fill="#FDD27B"></path>
                <path d="M309.983082,42.3822505 L302.614437,49.7508953 C302.465402,49.89954 302.571131,50.1535236 302.781029,50.1535236 L325.586491,50.1535236 L333.182979,42.5574251 C333.364396,42.3760082 333.236429,42.0514086 332.979324,42.0510185 L310.8176,42.0510185 C310.504704,42.0510185 310.204294,42.161039 309.983082,42.3822505" id="Fill-113" fill="#FFFFFF"></path>
                <path d="M325.568271,86.4267864 L333.60016,78.4132341 L333.60016,42.6429055 C333.60016,42.4298871 333.342665,42.323768 333.19207,42.4739733 L325.568271,50.116499 L325.568271,86.4267864 Z" id="Fill-114" fill="#CBC7FF"></path>
                <path d="M325.568271,86.4267864 L333.60016,78.4132341 L344.793774,78.4132341 C345.227224,78.4132341 345.444144,78.9371971 345.137491,79.2438501 L338.81014,85.5712012 C338.361474,86.0202567 337.755191,86.2758008 337.120427,86.2836037 L325.568271,86.4267864 Z" id="Fill-115" fill="#CBC7FF"></path>
                <polygon id="Fill-116" fill="#FFFFFF" points="309.386591 70.0097331 319.115216 70.0097331 319.115216 68.1854209 309.386591 68.1854209"></polygon>
                <polygon id="Fill-117" fill="#FFFFFF" points="309.386591 75.8470637 319.115216 75.8470637 319.115216 74.0227515 309.386591 74.0227515"></polygon>
                <path d="M333.212279,42.1839405 L325.485873,49.9107372 L302.546591,49.9107372 C302.452567,50.0628932 302.381951,50.2267536 302.32694,50.3968563 L325.306016,50.3968563 L325.306016,86.3591355 C325.47807,86.3134887 325.64232,86.2456037 325.792526,86.1511889 L325.792526,50.2915175 L333.555216,42.5292177 C333.493183,42.3712094 333.369507,42.2467536 333.212279,42.1839405" id="Fill-118" fill="#FDDB94"></path>
                <path d="M269.260698,141.930234 C268.482752,141.984854 267.758255,142.346127 267.247166,142.934854 L252.504805,159.906497 C251.642977,160.898632 251.210308,162.192349 251.302382,163.503232 L255.238152,219.499782 C255.290431,220.246908 255.93885,220.810275 256.685975,220.757606 L313.608337,216.757072 C314.666016,216.682945 315.650739,216.191363 316.346366,215.390789 L331.037228,198.478448 C331.609959,197.819105 331.897495,196.959618 331.836242,196.088427 L327.853655,139.42161 C327.800205,138.664341 327.144764,138.09278 326.387105,138.142719 L269.260698,141.930234 Z" id="Fill-119" fill="#E85F5B"></path>
                <path d="M267.326756,142.843287 L251.996448,160.491439 C251.687064,160.847251 251.962505,161.399304 252.433018,161.366532 L311.085667,157.244273 L326.88961,139.0507 C327.266879,138.61647 326.930965,137.942302 326.357064,137.982097 L269.139363,141.940105 C268.439446,141.988483 267.787125,142.313472 267.326756,142.843287" id="Fill-120" fill="#FF8581"></path>
                <path d="M315.260322,216.640848 L331.931554,197.448897 L327.836216,139.177029 C327.802663,138.700663 327.210035,138.50286 326.896749,138.863353 L310.996832,157.166947 L315.260322,216.640848 Z" id="Fill-121" fill="#B23C38"></path>
                <polygon id="Fill-122" fill="#FFFFFF" points="298.19723 180.921745 268.807312 182.987166 268.520556 178.905483 297.910474 176.839671"></polygon>
                <polygon id="Fill-123" fill="#FFFFFF" points="299.115472 193.983953 269.725554 196.049374 269.438799 191.96769 298.828717 189.901879"></polygon>
                <path d="M326.896828,138.210721 L310.822125,156.716018 L251.869846,160.859345 C251.683357,161.215156 251.550318,161.592815 251.455123,161.982569 L310.496745,157.83261 L314.622125,216.533637 C314.999004,216.404109 315.355595,216.226593 315.677854,215.991727 L311.56847,157.520495 L327.71769,138.929366 C327.555,138.586039 327.258881,138.326593 326.896828,138.210721" id="Fill-124" fill="#EB7470"></path>
                <path d="M370.863803,212.228127 L348.377478,212.228127 C347.613967,212.228127 346.995199,211.609359 346.995199,210.845848 L346.995199,201.64938 C346.995199,200.886259 347.613967,200.267101 348.377478,200.267101 L370.863803,200.267101 C371.627314,200.267101 372.246082,200.886259 372.246082,201.64938 L372.246082,210.845848 C372.246082,211.609359 371.627314,212.228127 370.863803,212.228127" id="Fill-125" fill="#E85F5B"></path>
                <path d="M363.380963,204.892528 C363.194084,204.312384 362.768437,203.83953 362.210532,203.593349 C361.578889,203.315567 360.925398,203.393986 360.318335,203.823144 C360.095563,203.983103 359.895029,204.172322 359.722195,204.385731 C359.549752,204.172322 359.349218,203.983103 359.126446,203.823144 C358.520552,203.392035 357.865891,203.314396 357.234248,203.592569 C356.677513,203.836799 356.251867,204.307312 356.063817,204.885895 C355.862503,205.49491 355.927657,206.160495 356.243674,206.718791 C356.782852,207.669571 357.868232,208.733493 359.477575,209.881296 C359.62778,209.988585 359.829094,209.988585 359.97891,209.881296 C361.58084,208.735444 362.66622,207.671522 363.206569,206.719571 C363.519074,206.162446 363.582667,205.499201 363.380963,204.892528" id="Fill-126" fill="#FFFFFF"></path>
                <path d="M403.095996,212.228127 L380.609671,212.228127 C379.84616,212.228127 379.227392,211.609359 379.227392,210.845848 L379.227392,201.64938 C379.227392,200.886259 379.84616,200.267101 380.609671,200.267101 L403.095996,200.267101 C403.859507,200.267101 404.478275,200.886259 404.478275,201.64938 L404.478275,210.845848 C404.478275,211.609359 403.859507,212.228127 403.095996,212.228127" id="Fill-127" fill="#41B093"></path>
                <polygon id="Fill-128" fill="#FFFFFF" points="394.747544 207.864916 388.842329 207.864916 387.05469 203.052883 394.747544 203.052883"></polygon>
                <path d="M394.339883,209.075922 L388.965263,209.075922 C388.857583,209.075922 388.770971,208.98892 388.770971,208.88163 C388.770971,208.774341 388.857583,208.687339 388.965263,208.687339 L394.339883,208.687339 C394.884524,208.687339 395.328117,208.244136 395.328117,207.699105 L395.328117,203.034936 C395.328117,202.276887 395.944544,201.66046 396.702593,201.66046 L397.301464,201.66046 C397.408754,201.66046 397.495756,201.747462 397.495756,201.854752 C397.495756,201.962041 397.408754,202.049043 397.301464,202.049043 L396.702593,202.049043 C396.158733,202.049043 395.7167,202.491466 395.7167,203.034936 L395.7167,207.699105 C395.7167,208.458324 395.098713,209.075922 394.339883,209.075922" id="Fill-129" fill="#FFFFFF"></path>
                <path d="M390.114587,209.627624 C389.917955,209.627624 389.758386,209.787583 389.758386,209.983825 C389.758386,210.180458 389.917955,210.340027 390.114587,210.340027 C390.31083,210.340027 390.470789,210.180458 390.470789,209.983825 C390.470789,209.787583 390.31083,209.627624 390.114587,209.627624 M390.114587,210.72861 C389.703766,210.72861 389.369803,210.394647 389.369803,209.983825 C389.369803,209.573004 389.703766,209.239041 390.114587,209.239041 C390.525409,209.239041 390.859372,209.573004 390.859372,209.983825 C390.859372,210.394647 390.525409,210.72861 390.114587,210.72861" id="Fill-130" fill="#FFFFFF"></path>
                <path d="M393.913534,209.627624 C393.717292,209.627624 393.557333,209.787583 393.557333,209.983825 C393.557333,210.180458 393.717292,210.340027 393.913534,210.340027 C394.110166,210.340027 394.269735,210.180458 394.269735,209.983825 C394.269735,209.787583 394.110166,209.627624 393.913534,209.627624 M393.913534,210.72861 C393.502713,210.72861 393.168749,210.394647 393.168749,209.983825 C393.168749,209.573004 393.502713,209.239041 393.913534,209.239041 C394.324355,209.239041 394.658318,209.573004 394.658318,209.983825 C394.658318,210.394647 394.324355,210.72861 393.913534,210.72861" id="Fill-131" fill="#FFFFFF"></path>
                <path d="M345.462949,138.666799 C345.462949,147.377928 338.400957,154.43953 329.690218,154.43953 C320.979088,154.43953 313.917487,147.377928 313.917487,138.666799 C313.917487,129.955669 320.979088,122.894068 329.690218,122.894068 C338.400957,122.894068 345.462949,129.955669 345.462949,138.666799" id="Fill-132" fill="#FFFFFF"></path>
                <path d="M329.690296,123.496528 C321.325614,123.496528 314.519947,130.301805 314.519947,138.666877 C314.519947,147.031559 321.325614,153.837226 329.690296,153.837226 C338.054977,153.837226 344.860645,147.031559 344.860645,138.666877 C344.860645,130.301805 338.054977,123.496528 329.690296,123.496528 M329.690296,155.04199 C320.660809,155.04199 313.314793,147.695973 313.314793,138.666877 C313.314793,129.63739 320.660809,122.291374 329.690296,122.291374 C338.719782,122.291374 346.065799,129.63739 346.065799,138.666877 C346.065799,147.695973 338.719782,155.04199 329.690296,155.04199" id="Fill-133" fill="#E85F5B"></path>
                <path d="M335.611429,142.544398 C335.611429,141.030251 334.865084,140.091955 333.819889,140.091955 C332.754016,140.091955 332.028739,141.030251 332.028739,142.544398 C332.028739,144.037088 332.754016,144.975384 333.819889,144.975384 C334.865084,144.975384 335.611429,144.037088 335.611429,142.544398 M330.173606,142.544398 C330.173606,139.963988 331.794263,138.577807 333.798821,138.577807 C335.80338,138.577807 337.424037,139.963988 337.424037,142.544398 C337.424037,145.103351 335.80338,146.489142 333.798821,146.489142 C331.794263,146.489142 330.173606,145.103351 330.173606,142.544398 M323.947302,145.61522 L333.009951,131.477191 C333.350936,130.922797 333.478903,130.858813 334.289232,130.858813 C334.971593,130.858813 335.227528,130.98678 334.865084,131.541175 L325.802045,145.678813 C325.439992,146.233598 325.312025,146.297581 324.501306,146.297581 C323.840402,146.297581 323.584468,146.169614 323.947302,145.61522 M326.740731,134.611606 C326.740731,133.118916 325.994386,132.18101 324.949191,132.18101 C323.882928,132.18101 323.158041,133.118916 323.158041,134.611606 C323.158041,136.125754 323.882928,137.064049 324.949191,137.064049 C325.994386,137.064049 326.740731,136.125754 326.740731,134.611606 M321.302908,134.611606 C321.302908,132.052653 322.923565,130.666862 324.927733,130.666862 C326.932682,130.666862 328.552949,132.052653 328.552949,134.611606 C328.552949,137.192016 326.932682,138.577807 324.927733,138.577807 C322.923565,138.577807 321.302908,137.192016 321.302908,134.611606" id="Fill-134" fill="#0D232B"></path>
                <path d="M148.888402,112.929485 L47.4880945,112.929485 C42.7704764,112.929485 38.9455072,109.104906 38.9455072,104.386897 L38.9455072,49.0641253 C38.9455072,44.3465072 42.7704764,40.5219281 47.4880945,40.5219281 L148.888402,40.5219281 C153.606411,40.5219281 157.43099,44.3465072 157.43099,49.0641253 L157.43099,104.386897 C157.43099,109.104906 153.606411,112.929485 148.888402,112.929485" id="Fill-135" fill="#FCC14A"></path>
                <path d="M64.9381314,76.4897084 L54.4947639,76.4897084 C52.4968378,76.4897084 50.8773511,74.8702218 50.8773511,72.8722957 L50.8773511,67.4329117 C50.8773511,65.4349856 52.4968378,63.815499 54.4947639,63.815499 L64.9381314,63.815499 C66.9360575,63.815499 68.5555441,65.4349856 68.5555441,67.4329117 L68.5555441,72.8722957 C68.5555441,74.8702218 66.9360575,76.4897084 64.9381314,76.4897084" id="Fill-136" fill="#D6B88D"></path>
                <path d="M103.91232,92.1952567 L116.945852,92.1952567 L116.945852,85.7243326 L103.91232,85.7243326 L103.91232,92.1952567 Z M86.2341273,92.1952567 L99.267269,92.1952567 L99.267269,85.7243326 L86.2341273,85.7243326 L86.2341273,92.1952567 Z M68.5559343,92.1952567 L81.589076,92.1952567 L81.589076,85.7243326 L68.5559343,85.7243326 L68.5559343,92.1952567 Z M50.8773511,92.1952567 L63.9104928,92.1952567 L63.9104928,85.7243326 L50.8773511,85.7243326 L50.8773511,92.1952567 Z" id="Fill-137" fill="#4B6E7C"></path>
                <path d="M56.0002895,73.1436016 C56.1465934,74.3983039 56.3728768,75.5324517 56.6350534,76.4898645 L57.1952998,76.4898645 C56.3346427,73.4580575 55.8422813,68.410768 57.2378255,63.8956345 L56.9779897,63.8152649 L56.6978665,63.8152649 C56.264807,65.2408501 56.0119938,66.7155934 55.8976817,68.1653676 L50.8773121,68.1653676 L50.8773121,68.7076674 L55.8641294,68.7076674 C55.7884415,70.0571745 55.8243347,71.3758604 55.9409877,72.6013018 L50.8773121,72.6013018 L50.8773121,72.8720616 C50.8773121,72.9637454 50.8847248,73.0538686 50.8909671,73.1436016 L56.0002895,73.1436016 Z" id="Fill-138" fill="#757575"></path>
                <path d="M61.8013758,63.8153819 L61.5212526,63.8153819 L61.2614168,63.8957515 C62.656961,68.4104949 62.1649897,73.4577844 61.3043326,76.4895914 L61.8641889,76.4895914 C62.1263655,75.5325688 62.3526489,74.3984209 62.4989528,73.1437187 L68.5418891,73.1437187 C68.5485216,73.0535955 68.5555441,72.9638624 68.5555441,72.8721786 L68.5555441,72.6014189 L62.5582546,72.6014189 C62.6749076,71.3759774 62.7108008,70.0572916 62.6351129,68.7077844 L68.5555441,68.7077844 L68.5555441,68.1654846 L62.6015606,68.1654846 C62.4872485,66.7157105 62.2344353,65.240577 61.8013758,63.8153819" id="Fill-139" fill="#757575"></path>
                <path d="M73.5205133,102.604682 L96.7668378,102.604682 L96.7668378,97.0455236 L73.5205133,97.0455236 L73.5205133,102.604682 Z M50.8773511,102.604292 L69.7244148,102.604292 L69.7244148,97.0451335 L50.8773511,97.0451335 L50.8773511,102.604292 Z" id="Fill-140" fill="#4B6E7C"></path>
                <path d="M138.799129,52.6395195 C134.596891,52.6395195 131.177281,56.0587392 131.177281,60.2613676 C131.177281,64.464386 134.596891,67.8832156 138.799129,67.8832156 C143.001758,67.8832156 146.421368,64.464386 146.421368,60.2613676 C146.421368,56.0587392 143.001758,52.6395195 138.799129,52.6395195 M138.799129,68.4255154 C134.297651,68.4255154 130.634982,64.7632361 130.634982,60.2613676 C130.634982,55.7598891 134.297651,52.0972197 138.799129,52.0972197 C143.300998,52.0972197 146.963667,55.7598891 146.963667,60.2613676 C146.963667,64.7632361 143.300998,68.4255154 138.799129,68.4255154" id="Fill-141" fill="#3D839D"></path>
                <path d="M203.185799,126.405634 L191.43506,126.405634 C186.941774,126.405634 183.299392,122.763643 183.299392,118.270357 L183.299392,40.6606242 C183.299392,36.167729 186.941774,32.525347 191.43506,32.525347 L203.185799,32.525347 L203.185799,126.405634 Z" id="Fill-142" fill="#184657"></path>
                <path d="M206.439949,126.405634 L194.689209,126.405634 C190.195924,126.405634 186.553542,122.763643 186.553542,118.270357 L186.553542,40.6606242 C186.553542,36.167729 190.195924,32.525347 194.689209,32.525347 L206.439949,32.525347 L206.439949,126.405634 Z" id="Fill-143" fill="#3D6372"></path>
                <path d="M197.437304,42.8061027 C197.437304,44.2640698 196.255559,45.4458152 194.797591,45.4458152 C193.339624,45.4458152 192.157879,44.2640698 192.157879,42.8061027 C192.157879,41.3481355 193.339624,40.1663901 194.797591,40.1663901 C196.255559,40.1663901 197.437304,41.3481355 197.437304,42.8061027" id="Fill-144" fill="#E85F5B"></path>
                <path d="M197.437304,50.9654127 C197.437304,52.4233799 196.255559,53.6051253 194.797591,53.6051253 C193.339624,53.6051253 192.157879,52.4233799 192.157879,50.9654127 C192.157879,49.5074456 193.339624,48.3257002 194.797591,48.3257002 C196.255559,48.3257002 197.437304,49.5074456 197.437304,50.9654127" id="Fill-145" fill="#FCC14A"></path>
                <path d="M197.437304,59.2205421 C197.437304,60.6785092 196.255559,61.8602546 194.797591,61.8602546 C193.339624,61.8602546 192.157879,60.6785092 192.157879,59.2205421 C192.157879,57.7625749 193.339624,56.5808296 194.797591,56.5808296 C196.255559,56.5808296 197.437304,57.7625749 197.437304,59.2205421" id="Fill-146" fill="#41B093"></path>
                <polygon id="Fill-147" fill="#0D232B" points="183.898029 118.623984 185.96423 118.623984 185.96423 46.2164271 183.898029 46.2164271"></polygon>
                <path d="M208.517893,243.728411 L208.517893,22.0682464 C208.517893,11.0782875 217.427216,2.16857495 228.417565,2.16857495 L419.584094,2.16857495 L208.517893,243.728411 Z" id="Fill-148" fill="#FFFFFF" opacity="0.200000003"></path>
                <path d="M210.601612,334.030885 C210.737382,342.708462 211.821982,352.018852 211.550832,356.764561 C211.279292,361.509879 210.737382,364.560413 210.737382,364.560413 L232.024405,364.560413 C232.024405,364.560413 232.295164,361.781029 226.871776,361.238729 C223.239538,360.875505 222.126458,356.89994 222.126458,350.798483 C222.126458,344.697025 224.160277,334.392548 224.160277,334.392548 L210.601612,334.030885 Z" id="Fill-149" fill="#FFD1C4"></path>
                <path d="M163.145776,333.036487 C161.925407,339.273715 161.563743,354.640306 161.157214,357.894105 C160.750294,361.148294 160.705037,364.266713 160.705037,364.266713 L180.953107,364.266713 C180.953107,364.266713 180.591444,361.690593 178.693394,361.60008 C172.590376,361.309813 172.54668,360.51548 171.46169,358.165645 C170.37709,355.815419 174.399862,338.866795 175.890992,334.121086 C177.382511,329.375768 163.145776,333.036487 163.145776,333.036487" id="Fill-150" fill="#FFD1C4"></path>
                <path d="M175.481809,335.506292 C175.631624,334.976476 175.770125,334.505573 175.89107,334.121281 C177.382589,329.375573 163.145854,333.036292 163.145854,333.036292 C163.073287,333.405758 163.004622,333.809556 162.938298,334.238715 C166.801891,335.549988 173.101542,335.55701 175.481809,335.506292" id="Fill-151" fill="#F4B6A5"></path>
                <path d="M220.273275,336.290598 C222.053111,335.83452 223.255534,335.447497 224.011242,335.175957 C224.103706,334.678524 224.160277,334.392548 224.160277,334.392548 L210.601612,334.030885 C210.616047,334.975423 210.643747,335.927374 210.67808,336.880495 C213.029867,336.935895 217.705349,336.94916 220.273275,336.290598" id="Fill-152" fill="#F4B6A5"></path>
                <path d="M177.111322,240.837016 C174.806353,248.972294 175.213273,253.175312 175.890953,257.649871 C176.72508,263.152848 175.348653,287.47909 170.467565,302.665045 C165.586476,317.85061 163.145737,333.036565 163.145737,333.036565 C165.347708,334.209337 173.131856,334.57022 175.890953,334.121164 C175.890953,334.121164 187.280419,313.240671 194.331097,300.495456 C200.864053,288.685805 210.465881,267.276667 210.465881,267.276667 L192.432657,240.837016 L177.111322,240.837016 Z" id="Fill-153" fill="#0D232B"></path>
                <path d="M180.636739,240.97263 C179.2806,253.175546 183.387253,264.906778 188.72676,272.655033 C194.738094,281.377476 203.822201,290.190823 207.34754,312.427066 C210.745302,333.860392 209.923269,334.256778 209.923269,334.256778 C212.497047,334.978154 220.842222,335.070228 224.160394,334.392548 C224.160394,334.392548 225.787294,333.036409 225.516144,305.376778 C225.244994,277.716758 211.957088,241.92185 211.957088,241.92185 L180.636739,240.97263 Z" id="Fill-154" fill="#283B42"></path>
                <path d="M207.269355,195.437277 C211.345187,200.529433 219.76878,200.367133 221.552127,199.620789 C224.760279,198.277524 225.14145,197.422719 226.515146,194.6843 C221.345351,189.487975 220.714879,189.959269 221.01568,187.334772 C221.348862,184.434053 227.496747,170.727133 227.496747,170.727133 L215.197856,166.107051 C215.197856,166.107051 209.378082,179.732041 208.106604,181.886415 C207.338021,183.188324 203.653893,184.906908 201.9634,186.284505 C202.762415,189.999844 204.829396,192.389084 207.269355,195.437277" id="Fill-155" fill="#FFD1C4"></path>
                <g transform="translate(207.117043, 165.811088)">
                    <mask id="mask-2" fill="white">
                        <use xlink:href="#path-1"></use>
                    </mask>
                    <g id="Clip-157"></g>
                    <path d="M13.8711704,22.2440452 C13.8575154,22.0325873 13.8676591,21.7953799 13.8988706,21.5238398 C14.2316632,18.6231211 20.3795483,4.91620123 20.3795483,4.91620123 L8.08104723,0.295728953 C8.08104723,0.295728953 2.2612731,13.9211088 0.989404517,16.0750924 C0.784969199,16.4219302 0.488459959,16.698152 0.112361396,16.9197536 L13.8711704,22.2440452 Z" id="Fill-156" fill="#FFD1C4" mask="url(#mask-2)"></path>
                </g>
                <path d="M222.485741,178.96892 C222.975762,179.150337 223.452127,179.281815 223.914448,179.368427 C225.73837,174.589947 227.533421,170.152062 227.533421,170.152062 L219.22414,167.240419 C217.669417,172.569392 218.571039,177.569864 222.485741,178.96892" id="Fill-158" fill="#F4B6A5"></path>
                <path d="M232.269949,166.517858 C231.645986,172.723991 228.932762,177.580699 223.243984,176.886358 C218.883278,176.406698 215.854163,170.986503 216.477735,164.780369 C217.10209,158.574236 219.09713,153.706897 225.504092,154.411869 C232.558864,155.187585 232.894303,160.311724 232.269949,166.517858" id="Fill-159" fill="#FFD1C4"></path>
                <path d="M213.149719,154.58439 C211.505263,157.392645 208.879205,160.323795 214.245242,167.851228 L218.42017,166.895376 L216.417172,157.819462 L213.149719,154.58439 Z" id="Fill-160" fill="#333333"></path>
                <path d="M229.690448,163.887055 C229.655725,164.214386 229.362337,164.451984 229.035006,164.417261 C228.707676,164.382928 228.470078,164.08993 228.504801,163.762209 C228.539133,163.434879 228.832522,163.197281 229.159852,163.231614 C229.487183,163.266337 229.72478,163.559725 229.690448,163.887055" id="Fill-161" fill="#000000"></path>
                <path d="M219.771121,168.686916 C217.450936,168.443076 215.767856,166.364 216.011696,164.043815 C216.255926,161.72363 218.334612,160.04055 220.655187,160.28439 L219.771121,168.686916 Z" id="Fill-162" fill="#F9C7BA"></path>
                <path d="M258.49747,186.756121 C247.795438,189.034951 230.573265,190.071357 222.804333,189.042548 C221.612444,192.618606 221.290965,199.480064 220.223142,203.094355 C227.87308,204.260495 236.737146,202.078811 245.763511,200.070351 C248.224928,199.522589 257.032871,197.77456 259.17554,197.264252 L258.49747,186.756121 Z" id="Fill-163" fill="#F4AD99"></path>
                <path d="M236.905454,189.675205 C238.532743,192.206068 237.08648,201.697485 237.08648,201.697485 L216.657774,192.296581 L220.273236,188.409579 C220.273236,188.409579 225.154715,189.404055 229.40299,189.675205 C233.651265,189.946355 236.905454,189.675205 236.905454,189.675205" id="Fill-164" fill="#D9A53C"></path>
                <path d="M219.980277,166.699602 C218.757177,166.570854 217.87038,165.475721 217.999127,164.25301 C218.127875,163.0303 219.223398,162.143113 220.445719,162.27186 L219.980277,166.699602 Z" id="Fill-166" fill="#F4B6A5"></path>
                <path d="M231.713187,163.683595 L233.930374,167.366552 C234.19255,167.801953 233.906185,168.361419 233.399388,168.403945 L231.089737,168.596285 L231.713187,163.683595 Z" id="Fill-168" fill="#ED6D53"></path>
                <path d="M220.608565,161.319715 L220.204376,164.616039 L221.360372,164.802528 C221.367394,163.980885 221.798893,162.009489 221.950659,161.363021 L220.608565,161.319715 Z" id="Fill-169" fill="#333333"></path>
                <path d="M234.029395,149.002135 C230.308204,147.130615 221.958618,149.05777 218.771144,149.933643 C215.970692,150.703396 214.730074,151.373348 213.494333,152.962936 C213.032398,153.763633 212.060671,156.62929 212.455887,159.442616 C213.122253,164.186374 219.735969,162.678858 221.425292,162.138119 C223.676811,161.417524 224.8964,158.942842 226.011041,155.795162 C226.011041,155.795162 227.966051,155.19083 231.542109,157.706086 C233.106975,156.636312 238.380668,151.190841 234.029395,149.002135 Z" id="Fill-170" fill="#333333"></path>
                <path d="M227.116786,161.722811 C227.441386,161.809813 227.762084,161.865604 228.078491,161.920224 L229.016006,162.080573 C229.32578,162.132462 229.631653,162.192154 229.937136,162.253797 C230.088511,162.286959 230.241838,162.31739 230.392823,162.355624 L230.870749,162.473057 C230.883234,162.476569 230.896499,162.4793 230.908984,162.481251 C230.918737,162.48047 230.904302,162.487103 230.973357,162.481251 C231.028758,162.474228 231.084548,162.428191 231.102495,162.393078 C231.152043,162.308027 231.123172,162.198786 231.038121,162.149238 C230.95307,162.0993 230.84383,162.128561 230.794281,162.213612 C230.809887,162.178889 230.862947,162.133632 230.916006,162.12739 C230.982331,162.122708 230.965164,162.12817 230.972967,162.12622 C230.98038,162.127 230.988573,162.12817 230.995986,162.130121 C231.002618,162.131292 230.997546,162.12661 230.997546,162.12661 C230.995595,162.122708 230.986622,162.114906 230.98116,162.109053 L230.934733,162.066528 L230.832125,161.984207 C230.76229,161.930368 230.687772,161.88238 230.613645,161.834392 C230.462269,161.743489 230.305431,161.663509 230.143912,161.597575 C229.822433,161.460634 229.485349,161.374803 229.147875,161.31355 C228.80923,161.260491 228.468634,161.23006 228.128819,161.238643 C227.789394,161.244495 227.450749,161.279608 227.118347,161.36622 C227.019641,161.391969 226.960729,161.492626 226.986088,161.591333 C227.003645,161.657657 227.055144,161.706035 227.116786,161.722811" id="Fill-171" fill="#283B42"></path>
                <path d="M231.362253,170.326339 C231.533526,170.344285 231.700117,170.348187 231.858125,170.346236 C231.899871,170.68176 231.940836,171.060199 231.973608,171.465168 C231.743423,171.502232 231.491,171.511205 231.227653,171.483115 C230.262047,171.381678 229.526626,170.84445 229.585538,170.283033 C229.64484,169.722006 230.395867,170.224901 231.362253,170.326339" id="Fill-173" fill="#FFFFFF"></path>
                <path d="M176.795111,242.915936 C182.670676,245.898975 192.071189,248.158688 198.217903,247.525875 C204.364618,246.893062 213.493982,246.983575 213.493982,246.983575 L212.861168,244.542836 L177.246897,240.204047 L176.795111,242.915936 Z" id="Fill-174" fill="#D9A53C"></path>
                <path d="M300.193322,188.584598 C299.782501,188.242441 299.297552,188.703201 298.896875,189.292318 C299.165294,188.629464 299.310817,187.931887 298.929647,187.61392 C298.505951,187.26045 297.778723,187.968951 297.166977,188.748458 C297.668702,187.878047 298.058846,186.887862 297.560242,186.471969 C297.026916,186.027205 296.090181,187.07162 295.349298,188.112914 C295.783138,187.28815 296.0894,186.406425 295.668435,186.055686 C295.22016,185.681538 293.881187,187.149649 292.676033,188.679402 C292.742747,188.588499 292.80361,188.505789 292.854719,188.435563 C293.458271,187.611969 292.292912,186.723222 290.759257,188.760943 C289.225992,190.798663 285.307388,195.847903 271.79671,198.624166 C259.514595,201.148006 246.019914,198.343653 237.176916,196.364064 C235.673302,199.820737 234.045622,206.759053 232.661782,210.264495 C240.179462,212.102852 249.737203,212.82852 258.906361,211.626097 C275.372768,209.467041 284.483405,208.032092 294.552624,198.098253 C299.818394,192.903099 301.073487,189.318848 300.193322,188.584598" id="Fill-175" fill="#FFD1C4"></path>
                <path d="M204.499881,184.364842 C193.969511,187.686526 186.918834,203.098374 181.721339,219.414185 C177.847992,231.572234 177.1114,240.836977 177.1114,240.836977 C177.1114,240.836977 181.450189,244.497696 194.195405,245.718066 C206.94062,246.938435 213.177458,245.446916 213.177458,245.446916 C213.177458,245.446916 217.516246,227.549462 222.261955,221.176854 C227.007273,214.804246 228.318546,212.047101 228.318546,212.047101 C228.318546,212.047101 236.36331,214.126177 241.153885,214.035663 C241.153885,214.035663 244.498197,209.299318 245.311647,205.719749 C246.216,201.742624 245.583187,197.855622 245.583187,197.855622 C245.583187,197.855622 236.543947,195.370016 232.205158,193.336197 C227.86637,191.302378 224.045692,189.086361 218.01368,187.098969 C210.330189,184.568107 207.229405,182.730842 207.229405,182.730842" id="Fill-177" fill="#FCC14A"></path>
                <polygon id="Fill-178" fill="#283B42" points="160.331396 365.306407 181.326201 365.306407 181.326201 364.221807 160.331396 364.221807"></polygon>
                <polygon id="Fill-179" fill="#283B42" points="210.245996 365.306407 232.636735 365.306407 232.636735 364.221807 210.245996 364.221807"></polygon>
                <path d="M168.094984,364.583431 C167.999789,364.583431 167.907324,364.533103 167.857776,364.44376 C167.784819,364.313062 167.832027,364.147641 167.963115,364.075074 C169.93217,362.981111 175.151513,361.29608 178.058864,361.29608 C178.206339,361.29647 178.336257,361.415464 178.336257,361.56762 C178.336257,361.717045 178.214532,361.83838 178.065107,361.83838 L178.058864,361.83838 C175.323957,361.83838 170.154552,363.477764 168.226462,364.549099 C168.184326,364.572507 168.13946,364.583431 168.094984,364.583431" id="Fill-180" fill="#0D232B"></path>
                <path d="M220.996407,364.492957 C220.956222,364.492957 220.915647,364.483984 220.877413,364.465257 C220.743203,364.399713 220.687023,364.237413 220.752957,364.102813 C221.211376,363.164127 222.762197,362.545749 223.982957,362.192669 C226.184148,361.555175 229.277207,361.231355 230.121088,361.751807 C230.248275,361.830226 230.28768,361.997598 230.209261,362.124784 C230.130842,362.252361 229.96347,362.291766 229.836283,362.213347 C229.276427,361.86768 226.479487,362.034271 224.133943,362.713121 C222.58039,363.163347 221.525441,363.756366 221.240246,364.340801 C221.193039,364.436776 221.096674,364.492957 220.996407,364.492957" id="Fill-181" fill="#0D232B"></path>
                <path d="M217.959099,229.876786 C219.26608,226.43923 220.742774,223.217033 222.261994,221.176971 C227.007312,214.804363 228.318585,212.047218 228.318585,212.047218 C221.990844,210.465575 220.445875,210.058655 220.445875,210.058655 C220.445875,210.058655 216.554191,222.155452 217.959099,229.876786" id="Fill-182" fill="#D9A53C"></path>
                <path d="M55.9850349,247.676158 L48.1860616,247.676158 C44.6361437,247.676158 41.7319138,244.771928 41.7319138,241.22201 L41.7319138,238.26394 C41.7319138,234.714023 44.6361437,231.809793 48.1860616,231.809793 L55.9850349,231.809793 C59.5349528,231.809793 62.4391828,234.714023 62.4391828,238.26394 L62.4391828,241.22201 C62.4391828,244.771928 59.5349528,247.676158 55.9850349,247.676158" id="Fill-184" fill="#FCC14A"></path>
                <path d="M49.5644394,358.47261 L50.3458973,365.373082 L52.0395113,365.373082 L52.0395113,360.198216 C52.0395113,360.198216 54.506,361.912507 55.91754,363.391542 C57.2822628,364.821029 59.7495318,365.912651 62.9768008,365.105834 L62.7669035,364.412158 L52.6906612,358.315772 L49.5644394,358.47261 Z" id="Fill-185" fill="#0D232B"></path>
                <path d="M79.7918008,358.472415 L80.8685975,365.306172 L82.5493368,365.306172 L82.6418008,360.220259 C82.6418008,360.220259 85.0958049,361.93494 86.5077351,363.413975 C87.8724579,364.843852 90.3397269,365.935084 93.5669959,365.128267 L93.3570986,364.434591 L83.2804661,358.337815 L79.7918008,358.472415 Z" id="Fill-186" fill="#0D232B"></path>
                <path d="M62.7752136,364.691267 C62.5274723,364.78061 61.6114148,364.976072 60.7581704,364.859419 C59.5420924,364.692828 57.665501,364.624162 54.8420308,361.666092 C52.7083347,359.430959 50.8079446,359.111041 49.5645565,358.438823 C50.6514969,349.899747 50.1618665,323.529932 50.412729,310.572869 C50.7225031,294.667489 49.7725031,275.227407 51.6760144,260.412869 L65.873345,261.360918 C65.873345,261.360918 64.8472669,267.947324 64.423961,279.22716 C64.000655,290.505045 64.0076776,297.964984 62.3940431,318.582129 C61.05546,335.687982 58.9908193,355.545517 59.1566304,357.225867 C59.5483347,361.190897 62.7623388,363.639439 62.7752136,364.691267" id="Fill-187" fill="#FFD1C4"></path>
                <path d="M51.7351631,261.187112 C51.306005,264.528303 51.0227606,268.106311 50.836662,271.824771 C55.1161487,270.607912 57.9837052,270.789719 61.1251425,271.318754 C62.608469,271.568836 63.876046,272.051444 64.8810563,272.557461 C65.3496189,265.880931 65.9332739,262.135161 65.9332739,262.135161 L51.7351631,261.187112 Z" id="Fill-188" fill="#F4B6A5"></path>
                <path d="M93.3569035,364.434669 C93.1317906,364.57122 92.6273347,364.807257 91.7682382,364.861487 C90.5427967,364.939125 88.3638439,364.568489 86.0140082,362.256887 C83.7055277,359.987421 82.1133511,359.127154 79.7916057,358.472493 C79.1677659,349.88738 76.1933101,329.029515 74.8231253,307.349228 C73.7564723,290.47239 73.5473552,277.376045 73.3284846,262.177606 L88.1871088,260.496476 C88.1871088,260.496476 87.5909692,272.82892 87.2730021,285.166045 C86.9507433,297.677955 87.0065339,300.518982 87.134501,318.196784 C87.2585667,335.354136 88.1910103,355.813663 88.6861027,357.428078 C89.854193,361.237051 93.1360821,363.40586 93.3569035,364.434669" id="Fill-189" fill="#FFD1C4"></path>
                <path d="M80.2538118,270.594648 C82.9571177,270.294237 85.7251875,271.042533 87.7492532,271.82321 C88.0059678,265.039781 88.2459062,260.071691 88.2459062,260.071691 L73.387282,261.75282 C73.4407317,265.450993 73.4934011,269.023539 73.5577748,272.557461 C74.9513682,271.84857 77.246974,270.929001 80.2538118,270.594648 Z" id="Fill-190" fill="#F4B6A5"></path>
                <path d="M79.4546386,157.977743 L81.5231807,160.186347 C81.7678008,160.447353 81.6534887,160.874561 81.3109425,160.978339 L79.7491971,161.450803 L79.4546386,157.977743 Z" id="Fill-191" fill="#ED6D53"></path>
                <path d="M79.8847721,158.884359 C80.6342382,164.492676 79.6499055,169.621505 75.2128008,169.755715 C72.9913224,169.823209 69.8104805,164.293702 68.7812813,158.729862 C67.7536427,153.175776 65.3421643,150.507583 71.0644025,149.727296 C79.2835606,148.607193 79.1349158,153.276043 79.8847721,158.884359" id="Fill-192" fill="#FFD1C4"></path>
                <path d="M79.9564025,160.756581 C80.0851499,161.719456 79.4090308,162.604302 78.4461561,162.733049 C77.4832813,162.861797 76.5984353,162.185678 76.4696879,161.222803 C76.3409405,160.259928 77.0174497,159.374692 77.9803244,159.246335 C78.942809,159.117587 79.827655,159.793706 79.9564025,160.756581" id="Fill-193" fill="#ED6D53"></path>
                <path d="M51.7044949,224.835778 C52.5694435,222.39777 54.2981704,207.443951 57.6596489,201.044423 C58.2101417,199.995717 59.31854,198.128099 59.8822977,197.111774 C60.1784168,193.315676 62.1248439,183.608899 55.8380678,187.048797 C49.9082731,190.293232 44.7533039,204.500316 43.7182526,219.622678 C43.4400801,223.686805 42.4690123,226.25317 45.3728522,228.128201 C48.4120719,230.091405 51.0080883,226.798591 51.7044949,224.835778" id="Fill-194" fill="#FFD1C4"></path>
                <path d="M75.0323593,194.875119 C79.0691766,194.79748 82.7626674,195.207912 84.949423,195.523538 C85.3040637,193.475283 85.0547618,191.505838 84.9318665,189.410376 C84.8632012,188.243846 83.6572669,186.822162 82.7353573,185.498405 C81.7607782,184.099349 80.3515791,183.034257 78.6981499,182.619924 C77.7551725,182.383497 77.2156037,182.085817 76.8835914,180.711341 C76.2359528,178.026762 73.8010657,160.679801 73.8010657,160.679801 L64.5230575,162.763949 C64.5230575,162.763949 64.7875749,177.965119 64.4173285,180.310273 C64.0782936,182.456454 60.5872875,183.600745 56.3288686,185.526105 C58.7532218,188.749082 59.5140021,193.46514 59.1187864,197.487131 C63.8114353,193.970766 69.8957269,194.973825 75.0323593,194.875119" id="Fill-196" fill="#FFD1C4"></path>
                <g transform="translate(63.934292, 160.349076)">
                    <mask id="mask-4" fill="white">
                        <use xlink:href="#path-3"></use>
                    </mask>
                    <g id="Clip-198"></g>
                    <path d="M13.156037,21.0104107 C13.0772279,20.8274333 13.0101232,20.6140246 12.9492608,20.3623819 C12.3016222,17.6778029 9.86673511,0.330451745 9.86673511,0.330451745 L0.589117043,2.41498973 C0.589117043,2.41498973 0.853244353,17.61577 0.482997947,19.9613142 C0.423305955,20.3389733 0.265297741,20.6850308 0.0230184805,21.0104107 L13.156037,21.0104107 Z" id="Fill-197" fill="#FFD1C4" mask="url(#mask-4)"></path>
                </g>
                <path d="M78.8770308,182.619885 C80.3779138,183.71814 83.5603162,193.264957 83.5603162,193.264957 L87.5940123,193.892698 C87.5940123,193.892698 84.9496181,187.214218 83.022308,185.152698 C81.0953881,183.090789 78.8770308,182.619885 78.8770308,182.619885" id="Fill-199" fill="#0D232B"></path>
                <path d="M91.4378255,241.670246 C89.0310287,225.192136 85.4553614,217.390431 84.7148686,212.268234 L83.7960801,206.847967 C83.7960801,206.847967 87.5816448,205.923326 89.0415626,201.72538 C90.5229384,197.466961 87.0054025,193.146899 87.0054025,193.146899 C87.0054025,193.146899 84.5365729,192.653368 74.7853203,192.900329 C65.0344579,193.146899 57.6287495,194.875236 57.6287495,194.875236 L55.4064908,201.663737 L56.1196735,211.192218 C55.4404333,215.142033 51.9396735,220.515873 48.051501,231.809754 C44.1637187,243.103634 43.1871889,266.89694 43.1871889,266.89694 C43.1871889,266.89694 51.7036366,268.810205 69.9717269,268.316283 C87.9394066,267.830945 94.6576817,266.094805 94.6576817,266.094805 C94.6576817,266.094805 93.8450123,258.148357 91.4378255,241.670246" id="Fill-200" fill="#0D232B"></path>
                <path d="M76.9392649,186.633684 C76.5705791,193.801405 86.5438234,206.373006 99.6393881,215.729823 C112.734172,225.086641 125.475097,200.528263 129.210723,194.410029 C132.946349,188.291795 132.474665,185.176107 132.034193,186.001651 C132.347088,185.123828 131.044398,184.37007 130.525507,185.180789 C130.931257,184.292821 129.352345,183.635039 128.735528,184.698181 C129.086657,183.849228 130.162674,182.103725 129.266513,181.745183 C128.367622,181.38586 125.519573,186.831097 124.784542,188.244197 C125.117725,187.588756 125.758341,186.305573 126.005302,185.631405 C126.188669,185.13046 125.795014,184.618982 125.496554,184.517154 C125.197704,184.414936 124.994439,184.72276 124.348752,185.776538 C123.056986,187.883704 117.971852,199.404649 107.080209,208.547667 C104.390949,208.816867 94.2394086,198.866641 88.5245832,188.513006 C86.0534127,184.036107 77.3301889,179.034464 76.9392649,186.633684" id="Fill-201" fill="#FFD1C4"></path>
                <path d="M74.2109117,164.176815 C72.0136222,164.470203 69.993848,162.927185 69.7000698,160.729505 C69.4066817,158.531825 70.9500903,156.512441 73.1473799,156.218663 L74.2109117,164.176815 Z" id="Fill-203" fill="#FEC5B4"></path>
                <path d="M73.9594641,162.294489 C72.8015175,162.449376 71.7372053,161.636316 71.5823183,160.477979 C71.4278214,159.319643 72.2408809,158.255721 73.3988275,158.100834 L73.9594641,162.294489 Z" id="Fill-204" fill="#F4B6A5"></path>
                <path d="M79.2020205,147.278324 C78.5500903,145.60929 75.9911376,144.287092 73.0876879,144.614423 C71.7428624,143.523581 69.9119179,142.970357 67.5281396,143.314464 C62.252616,144.076025 63.0734784,147.148016 58.1147515,149.180275 C53.1564148,151.212924 51.8049569,150.070583 47.0175031,150.586353 C42.2296591,151.101343 39.3344025,152.733704 36.3014251,156.127955 C33.2684476,159.521815 32.5841355,161.854875 28.2125749,162.688222 C23.8406242,163.521569 22.0135811,162.894218 17.7079548,166.084813 C13.4023285,169.275409 13.3539507,170.776292 10.9565175,173.337975 C8.55947433,175.900049 8.59146612,180.784649 13.0313018,183.272205 C14.6464969,184.176949 18.088345,183.841425 21.0733347,181.948057 C24.0579343,180.05469 26.5782628,179.344238 29.9385708,180.264977 C33.3000493,181.185717 37.1983655,180.540029 39.5548337,178.606086 C41.911692,176.672534 44.6840534,175.056559 50.2471129,175.682739 C55.8101725,176.30892 57.7187556,175.680398 61.1188583,172.23738 C64.518961,168.793971 65.8727598,167.741363 65.8727598,167.741363 C65.8727598,167.741363 75.8776057,157.811815 76.0800903,152.80354 C76.0956961,152.410275 76.0933552,152.014669 76.0761889,151.619454 C76.4105421,151.565614 76.7398234,151.562493 77.0503778,151.648324 C79.2972156,152.268263 79.9460246,149.184177 79.2020205,147.278324" id="Fill-205" fill="#5B1902"></path>
                <path d="M64.0077556,162.225901 C59.2565852,162.225901 53.7536078,159.523376 50.9406715,162.234094 C48.127345,164.945203 45.3265031,167.747606 42.5861335,168.207585 C39.8453737,168.667175 35.7098501,167.071877 32.2601992,169.214156 C28.8105483,171.356045 27.8757639,174.84354 24.3032177,176.068201 C20.7314517,177.292862 19.0241828,176.400214 16.2600144,179.478057 C15.1582485,180.70545 14.6058049,182.259782 14.3381663,183.685758 C16.13946,183.953786 18.74523,183.424752 21.0732177,181.948057 C24.0582074,180.05508 26.5781458,179.344238 29.9388439,180.264977 C33.2995421,181.185717 37.1982485,180.540029 39.5547166,178.606086 C41.9115749,176.672144 44.6843265,175.056559 50.2469959,175.682739 C55.8100554,176.30892 57.7186386,175.680398 61.1191314,172.23738 C64.5192341,168.793971 65.8726427,167.741363 65.8726427,167.741363 C65.8726427,167.741363 70.1373039,163.508304 73.1542854,159.176148 C73.1542854,159.176148 68.7589261,162.225901 64.0077556,162.225901" id="Fill-206" fill="#380E00"></path>
                <path d="M79.067538,157.811074 C79.067538,158.033846 78.8869014,158.214483 78.6641294,158.214483 C78.4413573,158.214483 78.2607207,158.033846 78.2607207,157.811074 C78.2607207,157.588302 78.4413573,157.407665 78.6641294,157.407665 C78.8869014,157.407665 79.067538,157.588302 79.067538,157.811074" id="Fill-207" fill="#0D232B"></path>
                <path d="M62.3046612,182.664049 C62.3046612,182.664049 74.4061396,181.252119 77.8124846,182.058936 C81.2184394,182.865754 83.6392813,182.507211 87.2247023,186.361832 C87.2247023,186.361832 87.1353593,192.098895 80.0534702,195.863782 C72.9719713,199.628669 55.6484189,202.093598 55.6484189,202.093598 C55.6484189,202.093598 51.2113142,194.631318 51.9958932,189.499368 C51.9958932,189.499368 55.111191,184.949901 62.3046612,182.664049" id="Fill-208" fill="#0D232B"></path>
                <path d="M83.4825606,360.388645 C83.478269,360.388645 83.4743676,360.388645 83.470076,360.388255 C83.3218214,360.381622 83.206729,360.255996 83.2137515,360.107351 C83.2601786,359.084394 82.8598912,358.071581 82.1158871,357.329138 C81.4307947,356.645606 80.5264415,356.27731 79.6291109,356.321006 C79.482807,356.327639 79.3548398,356.213326 79.3478172,356.065072 C79.3407947,355.916817 79.4554969,355.790801 79.6037515,355.783778 C80.6489466,355.731499 81.7038953,356.158316 82.4958871,356.948357 C83.3467906,357.79731 83.804039,358.957988 83.7505893,360.13193 C83.744347,360.275893 83.6253532,360.388645 83.4825606,360.388645" id="Fill-209" fill="#0D232B"></path>
                <path d="M89.2642177,364.792236 C89.1936016,364.792236 89.1237659,364.764926 89.0710965,364.710306 C88.9677084,364.603797 88.9704394,364.433694 89.0769487,364.329916 C89.6274415,363.796589 90.9675852,362.225871 90.5672977,361.377698 C90.5040945,361.243099 90.5610554,361.082749 90.695655,361.019546 C90.8302546,360.956733 90.9902136,361.013694 91.053807,361.147903 C91.688961,362.493119 89.6820616,364.492606 89.4510965,364.716548 C89.3992074,364.767267 89.3317125,364.792236 89.2642177,364.792236" id="Fill-210" fill="#0D232B"></path>
                <path d="M53.3629959,360.65761 C53.3481704,360.65761 53.3329548,360.656439 53.3177392,360.653708 C53.1710452,360.628739 53.072729,360.489458 53.0976982,360.343154 C53.2787248,359.284694 53.0555626,358.328062 52.4520103,357.577035 C51.8336324,356.807281 50.8746591,356.337548 49.8204908,356.28722 C49.6722361,356.280197 49.5575339,356.154181 49.5649466,356.005926 C49.5715791,355.857281 49.6991561,355.742189 49.8458501,355.749992 C51.0537351,355.807343 52.1562813,356.350423 52.8710246,357.239951 C53.5740637,358.114653 53.8358501,359.21915 53.6279035,360.434057 C53.6056653,360.565146 53.4917433,360.65761 53.3629959,360.65761" id="Fill-211" fill="#0D232B"></path>
                <path d="M58.6745298,364.769959 C58.5750431,364.769959 58.479848,364.714559 58.4330308,364.619754 C58.3674867,364.486324 58.4224969,364.325195 58.5551458,364.259651 C58.580115,364.247556 61.0388008,363.015873 60.6334415,361.57039 C60.5936468,361.427598 60.6771376,361.278953 60.8203203,361.239158 C60.9631129,361.198973 61.1117577,361.282464 61.1519425,361.425257 C61.6762957,363.299897 58.9105667,364.684127 58.7927433,364.742259 C58.7545092,364.760986 58.7143244,364.769959 58.6745298,364.769959" id="Fill-212" fill="#0D232B"></path>
                <path d="M45.7216797,234.857595 C45.6939795,234.857595 45.665499,234.855645 45.6374086,234.850963 C45.3440205,234.804926 45.1438768,234.529875 45.1899138,234.236097 C47.142193,221.811969 74.1100986,184.529053 80.1144107,182.011066 C80.3879014,181.896363 80.7035277,182.025501 80.81823,182.299382 C80.9333224,182.573263 80.8045749,182.888109 80.530694,183.003201 C77.9534045,184.083899 70.0381684,193.492216 62.1186407,204.888314 C53.0333634,217.961251 47.1020082,228.995296 46.2522752,234.403078 C46.2105298,234.668376 45.9819055,234.857595 45.7216797,234.857595" id="Fill-215" fill="#FCC14A"></path>
                <path d="M7.78172279,369.466158 L235.492236,369.466158 C236.633407,369.466158 237.558437,368.540737 237.558437,367.399957 C237.558437,366.258396 236.633407,365.330634 235.492236,365.330634 L7.78172279,365.330634 C6.64055236,365.330634 5.71552156,366.255665 5.71552156,367.396836 C5.71552156,368.538396 6.64055236,369.466158 7.78172279,369.466158" id="Fill-216" fill="#AABAC1"></path>
            </g>
        </g>
    </g>
</svg>